<svg xmlns="http://www.w3.org/2000/svg" version="1.1" xmlns:xlink="http://www.w3.org/1999/xlink" xmlns:svgjs="http://svgjs.dev/svgjs" viewBox="0 0 800 800"><defs><linearGradient x1="50%" y1="0%" x2="50%" y2="100%" id="uundulate-grad"><stop stop-color="hsl(224.651, 100%, 66%)" stop-opacity="1" offset="45%"></stop><stop stop-color="hsl(304.471, 100%, 50%)" stop-opacity="1" offset="100%"></stop></linearGradient></defs><g stroke-width="2" stroke="url(#uundulate-grad)" fill="none"><path d="M2226.626335720208 -1503.0492002164724C2492.8560965188717 -927.3982452062505 2545.3996623306894 35.56465435739028 2182.521567011773 918.2548661079509C1819.643471692857 1800.9450778585115 1278.672831222179 2716.104157721841 484.81147818940417 2733.8638161862154C-309.0498748433704 2751.6234746505897 -1488.9685982108367 1785.2927128684178 -1628.012927545542 1003.5012267369439C-1767.0572568802472 221.70974060547042 -710.2328948512886 -425.3247037702679 -182.60130261717768 -1018.7353172448638C345.03028961693326 -1612.1459307194596 402.69629052456867 -1743.9709923220266 904.6187151781901 -1844.8697179411108C1406.5411398318115 -1945.768443560195 1960.396574921544 -2078.700155226694 2226.626335720208 -1503.0492002164724C2492.8560965188717 -927.3982452062505 2545.3996623306894 35.56465435739028 2182.521567011773 918.2548661079509 "></path><path d="M2202.9041571420894 -1478.334337366157C2465.676388579732 -910.1593687846394 2517.537570419968 40.297519096357064 2159.3721776376606 911.5242216034039C1801.2067848553534 1782.7509241104508 1267.2617371180609 2686.0248211184125 483.71027178701024 2703.553834667665C-299.84119354404015 2721.0828482169172 -1464.4362971275132 1767.301836587761 -1601.674855951378 995.6634866398126C-1738.913414775243 224.02513669186465 -695.8140444609462 -414.6062629517212 -175.034810567538 -1000.3102450824913C345.74442332587023 -1586.0142272132614 402.6615151308092 -1716.1272750287822 898.0654667369809 -1815.715627587878C1393.469418343153 -1915.303980146974 1940.131925704447 -2046.5093059476744 2202.9041571420894 -1478.334337366157C2465.676388579732 -910.1593687846394 2517.537570419968 40.297519096357064 2159.3721776376606 911.5242216034039 "></path><path d="M2179.181490282721 -1453.6192303752164C2438.496192359341 -892.920248222403 2489.6749902279953 45.030627975948846 2136.2222999822975 904.793821239482C1782.7696097365997 1764.5570145030151 1255.8501547326928 2655.945728655609 482.60857710336677 2673.2440972897393C-290.63300052595946 2690.5424659238697 -1439.9044843254396 1749.3112044477289 -1575.3372726384641 987.8259906833064C-1710.7700609514886 226.34077691888388 -681.3956823518538 -403.8875779925497 -167.4688067991483 -981.8849287794937C346.4580687535572 -1559.882279566438 402.6262514557993 -1688.2833135949124 891.5117300145221 -1786.5612930940204C1380.397208573244 -1884.8392725931283 1919.8667882061 -2014.31821252803 2179.181490282721 -1453.6192303752164C2438.496192359341 -892.920248222403 2489.6749902279953 45.030627975948846 2136.2222999822975 904.793821239482 "></path><path d="M2155.459311704602 -1428.904367524901C2411.316484420202 -875.681371800792 2461.8128983172737 49.76349271491472 2113.072910608185 898.0631767349341C1764.3329228990965 1746.3628607549535 1244.4390606285747 2625.8663920521794 481.5073707009724 2642.934115771188C-281.4243192266292 2660.001839490197 -1415.372183242116 1731.3203281670708 -1548.9992010443002 979.9882505861742C-1682.6262188464846 228.65617300527765 -666.9768319615114 -393.1691371740035 -159.9023147495086 -963.4598566171217C347.17220246249417 -1533.7505760602396 402.5914760620399 -1660.4395963016677 884.9584815733124 -1757.4072027407874C1367.325487084585 -1854.3748091799073 1899.602138989003 -1982.1273632490104 2155.459311704602 -1428.904367524901C2411.316484420202 -875.681371800792 2461.8128983172737 49.76349271491472 2113.072910608185 898.0631767349341 "></path><path d="M2131.7368889858585 -1404.1892605339608C2384.136532340435 -858.4422512385559 2433.9505622659262 54.4966015945065 2089.9232770934473 891.3327763710122C1745.8959919209674 1728.1689511475179 1233.0277223838316 2595.787299589375 480.4059201579539 2612.6243783932623C-272.21588206792353 2629.4614571971497 -1390.8401262994175 1713.329696027039 -1522.6613735907615 972.150754629668C-1654.4826208821053 230.97181323229688 -652.558225711794 -382.4504522148318 -152.3360668404939 -945.0345403141241C347.88609203080614 -1507.6186284134164 402.5564565276554 -1632.595634867798 878.4049889914781 -1728.2528682469297C1354.2535214553013 -1823.9101016260615 1879.337245631281 -1949.9362698293658 2131.7368889858585 -1404.1892605339608C2384.136532340435 -858.4422512385559 2433.9505622659262 54.4966015945065 2089.9232770934473 891.3327763710122 "></path><path d="M2108.0142221264896 -1379.4746418242703C2356.9563361200453 -841.2036189575692 2406.0879820739538 59.22922219284828 2066.7733994380833 884.6018877258402C1727.4588168022137 1709.9745532588317 1221.616139998463 2565.7077188453213 479.30422547431 2582.3141527340877C-263.00768904984307 2598.920586622853 -1366.308313497344 1695.3385756057573 -1496.3237902778476 964.3127703919117C-1626.3392670583512 233.28696517806566 -638.1398636027013 -371.7322555369101 -144.77006307210422 -926.6097122923766C348.5997374584931 -1481.487169047843 402.5211928526455 -1604.7521617151783 871.8512522690189 -1699.099022034322C1341.1813116853923 -1793.4458823534655 1859.0721081329343 -1917.7456646909711 2108.0142221264896 -1379.4746418242703C2356.9563361200453 -841.2036189575692 2406.0879820739538 59.22922219284828 2066.7733994380833 884.6018877258402 "></path><path d="M2084.292043548371 -1354.759778973955C2329.7766281809054 -823.9647425359585 2378.2258901632313 63.962086931814156 2043.6240100639707 877.8712432212924C1709.02212996471 1691.7803995107702 1210.205045894345 2535.6283822418927 478.20301907191606 2552.0041712155353C-253.7990077505126 2568.3799601891797 -1341.7760124140204 1677.3476993250997 -1469.9857186836837 956.4750302947796C-1598.195424953347 235.60236126445943 -623.7210132123589 -361.01381471836385 -137.20357102246453 -908.1846401300043C349.3138711674301 -1455.3554655416447 402.4864174588856 -1576.9084444219338 865.2980038278097 -1669.9449316810892C1328.1095901967337 -1762.9814189402448 1838.8074589158373 -1885.5548154119515 2084.292043548371 -1354.759778973955C2329.7766281809054 -823.9647425359585 2378.2258901632313 63.962086931814156 2043.6240100639707 877.8712432212924 "></path><path d="M2060.5696208296276 -1330.0446719830147C2302.5966761011405 -806.7256219737219 2350.363554111884 68.69519581140594 2020.474376549233 871.1408428573704C1690.5851989865819 1673.586489903335 1198.7937076496019 2505.549289779088 477.10156852889713 2521.6944338376106C-244.5905705918069 2537.839577896132 -1317.243955471322 1659.357067185067 -1443.6478912301448 948.6375343382733C-1570.0518269889676 237.91800149147912 -609.3024069626417 -350.2951297591924 -129.63732311344984 -889.7593238270069C350.02776073574205 -1429.2235178948213 402.4513979245012 -1549.0644829880641 858.7445112459754 -1640.7905971872315C1315.0376245674493 -1732.5167113863988 1818.5425655581153 -1853.363721992307 2060.5696208296276 -1330.0446719830147C2302.5966761011405 -806.7256219737219 2350.363554111884 68.69519581140594 2020.474376549233 871.1408428573704 "></path><path d="M2036.8470760405717 -1305.3298091326992C2275.416601951063 -789.4867455521107 2322.5010959902247 73.42806055037272 1997.3246209641825 864.410198352823C1672.1481459381407 1655.3923361552738 1187.3822473345458 2475.4699531756596 475.99999591556616 2491.38445231906C-235.38225550341417 2507.2989514624605 -1292.7120205989359 1641.3661909044104 -1417.3101858469183 940.7997942411416C-1541.9083510949008 240.2333975778729 -594.8839227832366 -339.5766889406459 -122.07119727474765 -871.3342516646344C350.7415282337415 -1403.0918143886229 402.41625631980423 -1521.2207656948194 852.1908965938287 -1611.6365068339987C1301.9655368678532 -1702.052247973178 1798.2775501300807 -1821.1728727132875 2036.8470760405717 -1305.3298091326992C2275.416601951063 -789.4867455521107 2322.5010959902247 73.42806055037272 1997.3246209641825 864.410198352823 "></path><path d="M2013.1246533218282 -1280.614702141759C2248.2366498712972 -772.2476249898748 2294.6387599388772 78.16116942996359 1974.1749874494449 857.6797979889006C1653.711214960012 1637.1984265478372 1175.9709090898027 2445.390860712856 474.89854537254723 2461.0747149411336C-226.17381834470848 2476.758569169412 -1268.1799636562373 1623.3755587643777 -1390.9723583933794 932.9622982846349C-1513.7647531305217 242.54903780489167 -580.4653165335194 -328.85800398147444 -114.50494936573295 -852.9089353616371C351.4554178020535 -1376.9598667417995 402.3812367854198 -1493.3768042609497 845.6374040119945 -1582.482172340141C1288.8935712385692 -1671.587540419332 1778.0126567723587 -1788.9817792936428 2013.1246533218282 -1280.614702141759C2248.2366498712972 -772.2476249898748 2294.6387599388772 78.16116942996359 1974.1749874494449 857.6797979889006 "></path><path d="M1989.4023526733968 -1255.8998392914434C2221.0568198618453 -755.0087485682634 2266.7765459578422 82.89403416893038 1951.0254760050188 850.9491534843537C1635.274406052196 1619.0042727997761 1164.5596929153721 2415.3115241094265 473.7972168998408 2430.764733422584C-216.96525911569051 2446.2179427357405 -1243.6477846432263 1605.384682483721 -1364.634408869528 925.1245581875032C-1485.62103309583 244.8644338912859 -566.0465882134893 -318.13956316292797 -106.93857938640576 -834.4838631992645C352.1694294406775 -1350.8281632356013 402.34633932134784 -1465.533086967705 839.0840335004727 -1553.3280819869083C1275.821727679598 -1641.123077006111 1757.7478854849492 -1756.7909300146234 1989.4023526733968 -1255.8998392914434C2221.0568198618453 -755.0087485682634 2266.7765459578422 82.89403416893038 1951.0254760050188 850.9491534843537 "></path><path d="M1965.6799299546533 -1231.1849764411281C2193.8768677820794 -737.7698721466522 2238.914209906495 87.62689890789716 1927.8758424902812 844.2185089798063C1616.8374750740672 1600.810119051716 1153.148354670629 2385.232187505998 472.6957663568219 2400.4547519040334C-207.75682195698505 2415.677316302068 -1219.1157277005277 1587.3938062030638 -1338.2965814159893 917.286818090372C-1457.4774351314506 247.17982997768013 -551.6279819637718 -307.4211223443813 -99.37233147739107 -816.0587910368922C352.8833190089895 -1324.696459729403 402.3113197869634 -1437.6893696744605 832.5305409186385 -1524.1739916336753C1262.749762050314 -1610.6586135928903 1737.4829921272271 -1724.6000807356038 1965.6799299546533 -1231.1849764411281C2193.8768677820794 -737.7698721466522 2238.914209906495 87.62689890789716 1927.8758424902812 844.2185089798063 "></path><path d="M1941.9574767183317 -1206.4701135908126C2166.696885184736 -720.5309957250411 2211.05184333757 92.35976364686348 1904.7261784579655 837.4878644752589C1598.4005135783605 1582.6159653036543 1141.7369859083078 2355.1528509025684 471.5942852962253 2370.144770385483C-198.5484153158577 2385.1366898683955 -1194.583701275407 1569.4029299224067 -1311.9587844800285 909.4490779932403C-1429.3338676846497 249.4952260640739 -537.2094062316326 -296.7026815258348 -91.8061140859545 -797.6337188745197C353.59717805972355 -1298.5647562232045 402.2762697349999 -1409.8456523812158 825.9770178192261 -1495.0199012804426C1249.677765903452 -1580.1941501796696 1717.2180682519274 -1692.4092314565842 1941.9574767183317 -1206.4701135908126C2166.696885184736 -720.5309957250411 2211.05184333757 92.35976364686348 1904.7261784579655 837.4878644752589 "></path><path d="M1918.2350845171663 -1181.7552507404973C2139.5169636225496 -703.2921193034299 2183.1895378038007 97.09262838583004 1881.576575460805 830.757219970712C1579.96361311781 1564.4218115555932 1130.3256781811428 2325.07351429914 470.492865270784 2339.8347888669305C-189.3399476395739 2354.596063434723 -1170.0516138151304 1551.412053641749 -1285.6209265089115 901.6113378961086C-1401.1902392026923 251.8106221504686 -522.790769464337 -285.98424070728834 -84.23983565936169 -779.2086467121471C354.3110981456134 -1272.4330527170064 402.2412807181936 -1382.001935087971 819.42355575497 -1465.8658109272098C1236.605830791746 -1549.7296867664486 1696.9532054117835 -1660.2183821775648 1918.2350845171663 -1181.7552507404973C2139.5169636225496 -703.2921193034299 2183.1895378038007 97.09262838583004 1881.576575460805 830.757219970712 "></path><path d="M1894.5125397281104 -1157.0401437495568C2112.3368894724713 -686.0529987411937 2155.327079682141 101.8257372654216 1858.426819875755 824.0268196067896C1561.5265600693692 1546.2279019481575 1118.9142178660868 2294.994421836336 469.39129265745305 2309.5250514890067C-180.13163255118116 2324.0556811416754 -1145.5196789427443 1533.4214215017173 -1259.283221125685 893.7738419396023C-1373.0467633086255 254.12626237748736 -508.3722852849321 -275.26555574811687 -76.6737098206595 -760.7833304091498C355.0248656436129 -1246.301105070183 402.20613911349665 -1354.1579736541014 812.8699411028233 -1436.7114764333521C1223.53374309215 -1519.2649792126026 1676.688189983749 -1628.0272887579201 1894.5125397281104 -1157.0401437495568C2112.3368894724713 -686.0529987411937 2155.327079682141 101.8257372654216 1858.426819875755 824.0268196067896 "></path><path d="M1870.7901170093664 -1132.3253114168197C2085.1569373927064 -668.8141528371607 2127.464743630794 106.55857148681002 1835.277186361017 817.296144584664C1543.0896290912406 1528.0337176825183 1107.5028796213437 2264.9150547153286 468.2898421144341 2279.215039452876C-170.92319539247546 2293.515024190425 -1120.9876220000458 1515.4305147034815 -1232.945393672146 885.9360713248925C-1344.9031653442464 256.441627946303 -493.9536790352147 -264.5471454471485 -69.1074619116448 -742.3582887643556C355.7387552119251 -1220.1694320815627 402.171119579112 -1326.3142868784348 806.3164485209891 -1407.5574165976973C1210.461777462866 -1488.80054631696 1656.423296626027 -1595.8364699964786 1870.7901170093664 -1132.3253114168197C2085.1569373927064 -668.8141528371607 2127.464743630794 106.55857148681002 1835.277186361017 817.296144584664 "></path><path d="M1847.067694290623 -1107.6104485665041C2057.976985312941 -651.5752764155493 2099.602407579446 111.29143622577635 1812.1275528462793 810.5655000801166C1524.652698113112 1509.8395639344571 1096.0915413766002 2234.8357181118995 467.1883915714154 2248.905057934326C-161.71475823377 2262.9743977567523 -1096.4555650573473 1497.439638422824 -1206.6075662186072 878.0983312277608C-1316.7595673798671 258.75702403269725 -479.53507278549705 -253.82870462860205 -61.54121400263011 -723.9332166019831C356.4526447802368 -1194.0377285753643 402.1361000447273 -1298.4705695851903 799.7629559391544 -1378.4033262444646C1197.3898118335824 -1458.336082903739 1636.158403268305 -1563.6456207174592 1847.067694290623 -1107.6104485665041C2057.976985312941 -651.5752764155493 2099.602407579446 111.29143622577635 1812.1275528462793 810.5655000801166 "></path><path d="M1823.3452715718795 -1082.8954636458764C2030.797033233176 -634.3362779236256 2071.7400715280996 116.02442303505563 1788.9779193315412 803.8349776458822C1506.2157671349833 1491.645532256709 1084.680203131857 2204.7565035787834 466.08694102839627 2218.595198486088C-152.50632107506453 2232.433893393393 -1071.9235081146487 1479.4488842124797 -1180.2697387650683 870.2607132009421C-1288.6159694154878 261.072542189404 -465.11646653577964 -243.11014173974286 -53.97496609361542 -705.508022369298C357.1665343485488 -1167.9059029988534 402.10108051034285 -1270.626730221633 793.2094633573206 -1349.2491138209193C1184.3178462042983 -1427.8714974202057 1615.893509910583 -1531.454649368127 1823.3452715718795 -1082.8954636458764C2030.797033233176 -634.3362779236256 2071.7400715280996 116.02442303505563 1788.9779193315412 803.8349776458822 "></path><path d="M1799.6229709234485 -1058.1804787252486C2003.6172032237237 -617.097279431702 2043.8778575470647 120.75740984433446 1765.8284078871156 797.1044552116473C1487.7789582271666 1473.45150057896 1073.2689869574265 2174.677289045667 464.98561255569007 2188.2853390378496C-143.29776184604634 2201.893389030033 -1047.3913291016374 1461.458130002135 -1153.9317892412168 862.4230951741229C-1260.4722493807963 263.38806034611025 -450.69773821574995 -232.39157885088412 -46.40859611428846 -687.0828281366134C357.88054598717326 -1141.7740774223425 402.0661830462707 -1242.782890858076 786.6560928457989 -1320.094901397374C1171.2460026453268 -1397.4069119366723 1595.6287386231734 -1499.263678018795 1799.6229709234485 -1058.1804787252486C2003.6172032237237 -617.097279431702 2043.8778575470647 120.75740984433446 1765.8284078871156 797.1044552116473 "></path><path d="M1775.900548204705 -1033.465615874933C1976.4372511439583 -599.8584030100906 2016.0155214957172 125.49027458330124 1742.678774372378 790.3738107071003C1469.342027249038 1455.2573468308992 1061.8576487126834 2144.5979524422382 463.88416201267114 2157.9753575192995C-134.0893246873411 2171.35276259636 -1022.859272158939 1443.4672537214778 -1127.593961787678 854.5853550769912C-1232.328651416417 265.7034564325045 -436.2791319660323 -221.67313803233742 -38.84234820527354 -668.6577559742409C358.59443555548523 -1115.6423739161444 402.031163511886 -1214.9391735648312 780.1026002639646 -1290.9408110441414C1158.1740370160428 -1366.9424485234515 1575.3638452654518 -1467.0728287397756 1775.900548204705 -1033.465615874933C1976.4372511439583 -599.8584030100906 2016.0155214957172 125.49027458330124 1742.678774372378 790.3738107071003 "></path><path d="M1752.1780034156486 -1008.7507225070395C1949.2571769938809 -582.6194960709013 1988.1530633740576 130.2231698398457 1719.5290187873275 783.6431967201311C1450.9049742005973 1437.0632236004162 1050.4461883976278 2114.5186463563873 462.78258939933994 2127.6654065183266C-124.88100959894791 2140.812166680266 -998.327337286553 1425.4764079583988 -1101.2562564044515 846.7476454974376C-1204.1851755223502 268.0188830364766 -421.8606477866274 -210.95466669621283 -31.276222366571574 -650.2326532942902C359.3082030534847 -1089.5106398923679 401.99602190718883 -1187.0954257540084 773.5489856118174 -1261.7866901733305C1145.1019493164467 -1336.4779545926524 1555.0988298374173 -1434.8819489431776 1752.1780034156486 -1008.7507225070395C1949.2571769938809 -582.6194960709013 1988.1530633740576 130.2231698398457 1719.5290187873275 783.6431967201311 "></path><path d="M1728.4555806969051 -984.0357681039898C1922.0772249141155 -565.3805280965557 1960.2907273227106 134.95612613154663 1696.3793852725894 776.912643768318C1432.4680432224686 1418.8691614050895 1039.0348501528847 2084.4394013056926 461.681138856321 2097.3555165525104C-115.67257244024267 2110.2716317993277 -973.7952803438543 1407.485623230476 -1074.9184289509126 838.9099969530403C-1176.0415775579709 270.33437067560476 -407.4420415369101 -200.23613432493198 -23.709974457556655 -631.8074895791838C360.0220926217967 -1063.378844833435 401.96100237280416 -1159.2516169080295 766.9954930299837 -1232.6325082673634C1132.0299836871627 -1306.0133996266973 1534.8339364796952 -1402.6910081114238 1728.4555806969051 -984.0357681039898C1922.0772249141155 -565.3805280965557 1960.2907273227106 134.95612613154663 1696.3793852725894 776.912643768318 "></path><path d="M1704.7332800484742 -959.3209052536744C1894.8973949046626 -548.1416516749446 1932.4285133416756 139.68899087051318 1673.2298738281643 770.1819992637711C1414.0312343146525 1400.6750076570288 1027.6236339784537 2054.360064702264 460.5798103836146 2067.04553503396C-106.46401321122448 2079.7310053656556 -949.2631013308433 1389.4947469498188 -1048.5804794270612 831.072256855909C-1147.8978575232793 272.649766761999 -393.0233132168802 -189.5176935063855 -16.14360447822969 -613.3824174168111C360.73610426042114 -1037.247141327237 401.9261049087322 -1131.4078996147846 760.4421225184619 -1203.4784179141307C1118.9581401281916 -1275.5489362134763 1514.5691651922857 -1370.5001588324042 1704.7332800484742 -959.3209052536744C1894.8973949046626 -548.1416516749446 1932.4285133416756 139.68899087051318 1673.2298738281643 770.1819992637711 "></path><path d="M1681.0108573297307 -934.6059203330465C1867.7174428248973 -530.9026531830209 1904.5661772903281 144.42197767979223 1650.0802403134262 763.4514768295362C1395.5943033365238 1382.4809759792797 1016.2122957337106 2024.280850169147 459.4783598405959 2036.7356755857218C-97.25557605251879 2049.1905010022956 -924.7310443881447 1371.5039927394741 -1022.2426519735224 823.2346388290898C-1119.7542595589 274.9652849187057 -378.60470696716277 -178.79913061752654 -8.577356569214771 -594.9572231841263C361.4499938287329 -1011.1153157507259 401.89108537434754 -1103.5640602512276 753.8886299366277 -1174.3242054905852C1105.8861744989072 -1245.084350729943 1494.3042718345637 -1338.309187483072 1681.0108573297307 -934.6059203330465C1867.7174428248973 -530.9026531830209 1904.5661772903281 144.42197767979223 1650.0802403134262 763.4514768295362 "></path><path d="M1657.2882820230966 -909.8909354124187C1840.5373381572417 -513.6636546910972 1876.703688651091 149.15496448907106 1626.9304542107975 756.7209543953013C1377.1572197705045 1364.2869443015315 1004.8008049010768 1994.2016356360305 458.37675670968633 2006.4258161374833C-88.04729148170418 2018.6499966389356 -900.1991400333368 1353.513238529129 -995.9049771078742 815.3970208022702C-1091.6108141824116 277.280803075412 -364.186253305336 -168.08056772866757 -1.011261248090932 -576.5320289514414C362.16373080915423 -984.9834901742151 401.85591325207224 -1075.7202208876704 747.3349847669024 -1145.16999306704C1092.814056281733 -1214.6197652464095 1474.039225888951 -1306.1182161337401 1657.2882820230966 -909.8909354124187C1840.5373381572417 -513.6636546910972 1876.703688651091 149.15496448907106 1626.9304542107975 756.7209543953013 "></path><path d="M1633.5658593043527 -885.1760725621032C1813.3573860774768 -496.42477826948584 1848.8413525997435 153.88782922803762 1603.7808206960594 749.9903098907544C1358.7202887923759 1346.0927905534704 993.3894666563333 1964.1222990326019 457.2753061666674 1976.1158346189327C-78.83885432299849 1988.1093702052635 -875.6670830906382 1335.5223622484723 -969.5671496543353 807.5592807051389C-1063.4672162180323 279.5961991618062 -349.76764705561845 -157.36212691012088 6.554986660923987 -558.1069567890689C362.8776203774664 -958.8517866680168 401.82089371768757 -1047.8765035944257 740.7814921850686 -1116.0159027138072C1079.742090652449 -1184.1553018331888 1453.774332531229 -1273.9273668547205 1633.5658593043527 -885.1760725621032C1813.3573860774768 -496.42477826948584 1848.8413525997435 153.88782922803762 1603.7808206960594 749.9903098907544 "></path><path d="M1609.8435586559217 -860.4611181590535C1786.177556068024 -479.1858102951405 1820.9791386187085 158.62078551973855 1580.6313092516343 743.2597569389413C1340.2834798845597 1327.8987283581437 981.9782504819032 1934.0430539819072 456.1739776939612 1945.8059446531165C-69.63029509398075 1957.5688353243254 -851.1349040776272 1317.531577520549 -943.2292001304838 799.721632160742C-1035.3234961833405 281.9116868009346 -335.34891873558865 -146.64359453884026 14.121356640251179 -539.6817930739621C363.59163201609067 -932.7199916090841 401.7859962536156 -1020.0326947484467 734.2281216735464 -1086.8617208078401C1066.6702470934779 -1153.6907468672334 1433.50956124382 -1241.7364260229665 1609.8435586559217 -860.4611181590535C1786.177556068024 -479.1858102951405 1820.9791386187085 158.62078551973855 1580.6313092516343 743.2597569389413 "></path><path d="M1586.1211359371782 -835.7462247911599C1758.997603988259 -461.9469033559511 1793.1168025673614 163.35368077628323 1557.4816757368962 736.5291429519721C1321.8465489064315 1309.7046051276607 970.5669122371601 1903.9637478960562 455.0725271509423 1915.4959936521432C-60.42185793527506 1927.02823940823 -826.6028471349285 1299.54073175747 -916.8913726769449 791.883922581188C-1007.1798982189613 284.22711340490673 -320.93031248587124 -135.92512320271544 21.68760454926587 -521.2566903940116C364.30552158440264 -906.5882575853076 401.75097671923095 -992.1889469376239 727.6746290917124 -1057.707599937029C1053.5982814641939 -1123.2262529364343 1413.244667886098 -1209.545546226369 1586.1211359371782 -835.7462247911599C1758.997603988259 -461.9469033559511 1793.1168025673614 163.35368077628323 1557.4816757368962 736.5291429519721 "></path><path d="M1562.3987437360129 -811.0313619408446C1731.8176824260713 -444.70802693433984 1765.2544970335925 168.08654551525 1534.3320727397363 729.7984984474251C1303.409648445881 1291.5104513796 959.1556045099942 1873.8844112926276 453.9711071255017 1885.1860121335935C-51.21339025899124 1896.4876129745585 -802.0707596746519 1281.5498554768128 -890.5535147058279 784.0461824840568C-979.036269737004 286.54250949130096 -306.5116757185756 -125.2066823841692 29.253882975858687 -502.83161823163914C365.01944167029274 -880.4565540791093 401.7159877024244 -964.3452296443793 721.1211670274561 -1028.5535095837963C1040.526346352488 -1092.7617895232136 1392.979805045954 -1177.3546969473493 1562.3987437360129 -811.0313619408446C1731.8176824260713 -444.70802693433984 1765.2544970335925 168.08654551525 1534.3320727397363 729.7984984474251 "></path><path d="M1538.6763210172694 -786.3163770202167C1704.6377303463064 -427.46902844241606 1737.392160982245 172.81953232452884 1511.1824392249987 723.0679760131898C1284.9727174677523 1273.3164197018514 947.7442662652511 1843.805196759511 452.8696565824828 1854.8761526853546C-42.004953100286 1865.9471086111985 -777.5387027319533 1263.5591012664681 -864.215687252289 776.2085644572376C-950.8926717726247 288.85802764800724 -292.0930694688582 -114.48811949531 36.82013088487315 -484.4064239989542C365.7333312386047 -854.3247285025984 401.6809681680397 -936.5013902808221 714.5676744456221 -999.3992971602511C1027.454380723204 -1062.2972040396803 1372.714911688232 -1145.1637255980172 1538.6763210172694 -786.3163770202167C1704.6377303463064 -427.46902844241606 1737.392160982245 172.81953232452884 1511.1824392249987 723.0679760131898 "></path><path d="M1514.953776228213 -761.6014226171669C1677.457656196229 -410.2300604680705 1709.529702860585 177.55248861622977 1488.0326836399481 716.3374230613772C1266.5356644193112 1255.122357506525 936.3328059501955 1813.7259517088169 451.76808396915135 1824.5662627195388C-32.79663801189304 1835.4065737302608 -753.0067678595672 1245.5683165385453 -837.8779818690625 768.3709159128407C-922.7491958785579 291.17351528713607 -277.6745852894534 -103.76958712402916 44.38625672357557 -465.9812602838474C366.4470987366042 -828.1929334436657 401.6458265633428 -908.657581434843 708.0140597934751 -970.245115254284C1014.3822930236079 -1031.832649073725 1352.4498962601974 -1112.9727847662634 1514.953776228213 -761.6014226171669C1677.457656196229 -410.2300604680705 1709.529702860585 177.55248861622977 1488.0326836399481 716.3374230613772 "></path><path d="M1491.2313535094695 -736.886437696539C1650.2777041164636 -392.99106197614685 1681.667366809238 182.28547542550882 1464.88305012521 709.6069006271427C1248.098733441182 1236.9283258287765 924.9214677054524 1783.6467371756999 450.66663342613265 1794.2564032713003C-23.588200853187573 1804.8660693669008 -728.4747109168686 1227.5775623282007 -811.5401544155237 760.5332978860215C-894.6055979141787 293.4890334438426 -263.25597903973585 -93.05102423517019 51.952504632590035 -447.5560660511625C367.16098830491615 -802.0611078671549 401.6108070289581 -880.8137420712858 701.4605672116411 -941.0909028307387C1001.3103273943238 -1001.3680635901916 1332.1850029024754 -1080.7818134169313 1491.2313535094695 -736.886437696539C1650.2777041164636 -392.99106197614685 1681.667366809238 182.28547542550882 1464.88305012521 709.6069006271427 "></path><path d="M1467.508930790726 -712.1715748462236C1623.0977520366987 -375.7521855545357 1653.805030757891 187.01834016447515 1441.7334166104724 702.8762561225951C1229.6618024630534 1218.7341720807149 913.5101294607093 1753.5674005722713 449.5651828831137 1763.9464217527493C-14.37976369448188 1774.3254429332283 -703.9426539741701 1209.5866860475435 -785.2023269619848 752.6955577888898C-866.4619999497995 295.80442953023635 -248.83737279001843 -82.33258341662349 59.518752541604954 -429.13099388879004C367.8748778732281 -775.9294043609566 401.57578749457343 -852.9700247780412 694.9070746298069 -911.936812477506C988.2383617650403 -970.9036001769707 1311.9201095447534 -1048.5909641379117 1467.508930790726 -712.1715748462236C1623.0977520366987 -375.7521855545357 1653.805030757891 187.01834016447515 1441.7334166104724 702.8762561225951 "></path><path d="M1443.7865080719826 -687.4567119959082C1595.9177999569333 -358.5133091329244 1625.9426947065435 191.75120490344193 1418.5837830957344 696.145611618048C1211.2248714849247 1200.5400183326542 902.0987912159662 1723.4880639688422 448.463732340095 1733.6364402341992C-5.171326535776643 1743.7848164995557 -679.4105970314715 1191.5958097668863 -758.8644995084459 744.8578176917586C-838.3184019854202 298.1198256166306 -234.41876654030102 -71.61414259807725 67.08500045061965 -410.7059217264176C368.58876744153986 -749.7977008547582 401.54076796018876 -825.1263074847965 688.3535820479724 -882.7827221242732C975.1663961357563 -940.4391367637497 1291.6552161870318 -1016.4001148588922 1443.7865080719826 -687.4567119959082C1595.9177999569333 -358.5133091329244 1625.9426947065435 191.75120490344193 1418.5837830957344 696.145611618048 "></path><path d="M1420.0642074235516 -662.7417270752803C1568.737969947481 -341.27431064100074 1598.080480725509 196.48419171272076 1395.4342716513088 689.415089183813C1192.788062577109 1182.3459866549056 890.6875750415354 1693.4088494357256 447.3624038673886 1703.3265807859607C4.037232693241549 1713.2443121361957 -654.8784180184605 1173.6050555565416 -732.5265499845946 737.0201996649394C-810.1746819507285 300.4353437733371 -220.0000382202711 -60.89557970921828 74.65137042994684 -392.2807274937327C369.3027790801643 -723.6658752782473 401.5058704961168 -797.2824681212394 681.8002115364509 -853.6285097007278C962.094552576785 -909.9745512802165 1271.3904448996223 -984.20914350956 1420.0642074235516 -662.7417270752803C1568.737969947481 -341.27431064100074 1598.080480725509 196.48419171272076 1395.4342716513088 689.415089183813 "></path><path d="M1396.3417847048077 -638.026864224965C1541.5580178677155 -324.0354342193896 1570.218144674162 201.2170564516873 1372.2846381365712 682.6844446792659C1174.3511315989804 1164.1518329068444 879.2762367967923 1663.3295128322966 446.26095332436967 1673.0165992674101C13.245669851947014 1682.7036857025232 -630.3463610757619 1155.614179275884 -706.1887225310556 729.1824595678077C-782.0310839863494 302.7507398597311 -205.5814319705537 -50.17713889067181 82.21761833896153 -373.85565533136037C370.0166686484765 -697.534171772049 401.47085096173214 -769.4387508279947 675.2467189546164 -824.4744193474951C949.0225869475009 -879.5100878669955 1251.1255515419002 -952.0182942305405 1396.3417847048077 -638.026864224965C1541.5580178677155 -324.0354342193896 1570.218144674162 201.2170564516873 1372.2846381365712 682.6844446792659 "></path><path d="M1372.619331468486 -613.311879304337C1514.378035270372 -306.7964357274658 1542.3557781052364 205.95004326096637 1349.134974104255 675.9539222450314C1155.9141701032736 1145.9578012290958 867.8648680344711 1633.2502982991805 445.1594722637726 1642.706739819172C22.454076493074353 1652.1631813391632 -605.8143346506414 1137.6234250655398 -679.8509255950948 721.3448415409887C-753.8875165395482 305.0662580164378 -191.1628562384144 -39.45857600181262 89.78383573039787 -355.43046109867544C370.73052769921014 -671.4023461955381 401.43580090976934 -741.5949114644375 668.6931958552043 -795.3202069239499C935.950590800639 -849.0455023834622 1230.8606276666 -919.8273228812084 1372.619331468486 -613.311879304337C1514.378035270372 -306.7964357274658 1542.3557781052364 205.95004326096637 1349.134974104255 675.9539222450314 "></path><path d="M1348.8969087497426 -588.5968943837092C1487.1980831906071 -289.557437235542 1514.4934420538889 210.68303007024542 1325.9853405895174 669.2233998107963C1137.477239125145 1127.7637695513477 856.4535297897278 1603.171083766064 444.0580217207537 1612.3968803709336C31.662513651780046 1621.6226769758032 -581.2822777079429 1119.632670855195 -653.5130981415559 713.5072235141695C-725.743918575169 307.3817761731441 -176.744249988697 -28.740013112953648 97.35008363941256 -337.0052668659905C371.4444172675221 -645.2705206190274 401.40078137538467 -713.7510721008804 662.1397032733698 -766.1659945004046C922.878625171355 -818.5809168999288 1210.5957343088785 -887.6363515318764 1348.8969087497426 -588.5968943837092C1487.1980831906071 -289.557437235542 1514.4934420538889 210.68303007024542 1325.9853405895174 669.2233998107963 "></path><path d="M1325.174486030999 -563.8820315333938C1460.0181311108418 -272.31856081393084 1486.6311060025419 215.4158948092122 1302.8357070747788 662.4927553062494C1119.0403081470163 1109.5696158032865 845.0421915449845 1573.0917471626353 442.956571177735 1582.0868988523835C40.8709508104854 1591.0820505421311 -556.7502207652443 1101.641794574538 -627.175270688017 705.6694834170382C-697.6003206107898 309.6971722595383 -162.32564373897958 -18.02157229440718 104.91633154842725 -318.5801947036181C372.1583068358341 -619.138817112829 401.3657618410002 -685.9073548076357 655.5862106915356 -737.0119041471718C909.8066595420712 -788.116453486708 1190.3308409511565 -855.4455022528568 1325.174486030999 -563.8820315333938C1460.0181311108418 -272.31856081393084 1486.6311060025419 215.4158948092122 1302.8357070747788 662.4927553062494 "></path><path d="M1301.4520633122556 -539.1671686830784C1432.8381790310768 -255.07968439231968 1458.7687699511948 220.14875954817853 1279.6860735600412 655.762110801702C1100.6033771688876 1091.3754620552254 833.6308533002414 1543.0124105592063 441.85512063471606 1551.7769173338324C50.07938796919086 1560.5414241084586 -532.2181638225456 1083.6509182938807 -600.8374432344781 697.8317433199063C-669.4567226464105 312.0125683459323 -147.90703748926217 -7.303131475860482 112.48257945744194 -300.15512254124565C372.87219640414605 -593.0071136066307 401.33074230661555 -658.0636375143911 649.0327181097014 -707.857813793939C896.7346939127874 -757.651990073487 1170.0659475934344 -823.2546529738372 1301.4520633122556 -539.1671686830784C1432.8381790310768 -255.07968439231968 1458.7687699511948 220.14875954817853 1279.6860735600412 655.762110801702 "></path><path d="M1277.7296405935122 -514.4521837624505C1405.658226951312 -237.840685900396 1430.9064338998478 224.88174635745736 1256.5364400453036 649.0315883674671C1082.1664461907592 1073.1814303774768 822.2195150554983 1512.9331960260897 440.75367009169713 1521.467057885594C59.287825127896326 1530.0009197450986 -507.6861068798471 1065.6601640835352 -574.4996157809392 689.9941252930871C-641.3131246820313 314.3280865026388 -133.48843123954475 3.4154314129982595 120.04882736645663 -281.72992830856083C373.586085972458 -566.8752880301198 401.2957227722309 -630.2197981508339 642.4792255278671 -678.7036013703937C883.6627282835034 -727.1874045899538 1149.8010542357124 -791.0636816245051 1277.7296405935122 -514.4521837624505C1405.658226951312 -237.840685900396 1430.9064338998478 224.88174635745736 1256.5364400453036 649.0315883674671 "></path><path d="M1254.0072178747682 -489.73732091213515C1378.478274871546 -220.60180947878462 1403.0440978485003 229.61461109642414 1233.386806530565 642.3009438629201C1063.7295152126303 1054.9872766294156 810.808176810755 1482.8538594226607 439.65221954867843 1491.1570763670438C68.4962622866019 1499.4602933114265 -483.15404993714856 1047.669287802879 -548.1617883274004 682.1563851959559C-613.1695267176522 316.6434825890328 -119.06982498982723 14.133872231544956 127.61507527547133 -263.3048561461883C374.29997554077 -540.7435845239215 401.2607032378462 -602.3760808575892 635.9257329460329 -649.549511017161C870.5907626542196 -696.7229411767328 1129.5361608779906 -758.8728323454856 1254.0072178747682 -489.73732091213515C1378.478274871546 -220.60180947878462 1403.0440978485003 229.61461109642414 1233.386806530565 642.3009438629201 "></path><path d="M1230.2848256736029 -465.02233599150736C1351.2983533093593 -203.36281098686095 1375.181792314731 234.34759790570297 1210.2372035334056 635.5704214286852C1045.29261475208 1036.7932449516675 799.39686908359 1452.774644889544 438.55079952323763 1460.8472169188053C77.70472996288561 1468.919788948066 -458.6219624768719 1029.6785335925333 -521.8239303562833 674.3187671691367C-585.0258982356947 318.95900074573956 -104.6511882225318 24.852435120403698 135.18135370206414 -244.87966191350347C375.0138956266601 -514.6117589474106 401.22571422103965 -574.5322414940321 629.3722708817768 -620.3952985936157C857.5188275425137 -666.2583556931994 1109.2712980378467 -726.6818609961535 1230.2848256736029 -465.02233599150736C1351.2983533093593 -203.36281098686095 1375.181792314731 234.34759790570297 1210.2372035334056 635.5704214286852 "></path><path d="M1206.5624029548594 -440.30735107087946C1324.118401229594 -186.1238124949374 1347.319456263384 239.0805847149818 1187.0875700186677 628.8398989944503C1026.8556837739513 1018.5992132739186 787.9855308388467 1422.695430356428 437.44934898021893 1430.5373574705668C86.91316712159107 1438.379284584706 -434.0899055341733 1011.6877793821889 -495.4861029027444 666.4811491423175C-556.8823002713156 321.27451890244583 -90.23258197281439 35.570998009262894 142.74760161107884 -226.45446768081854C375.72778519497206 -488.4799333708998 401.1906946866552 -546.6884021304749 622.8187782999426 -591.2410861700705C844.4468619132299 -635.793770209666 1089.0064046801247 -694.4908896468214 1206.5624029548594 -440.30735107087946C1324.118401229594 -186.1238124949374 1347.319456263384 239.0805847149818 1187.0875700186677 628.8398989944503 "></path><path d="M1182.8399802361157 -415.59248822056406C1296.9384491498286 -168.88493607332612 1319.457120212037 243.81344945394858 1163.9379365039297 622.1092544899032C1008.4187527958227 1000.405059525858 776.5741925941036 1392.616093752999 436.3478984372 1400.2273759520167C96.12160428029654 1407.838658151034 -409.55784859147474 993.6969031015319 -469.1482754492055 658.643409045186C-528.7387023069364 323.58991498884006 -75.81397572309686 46.28943882780936 150.31384952009353 -208.0293955184461C376.4416747632838 -462.34822986470147 401.15567515227076 -518.8446848372303 616.2652857181083 -562.0869958168377C831.3748962839461 -605.3293067964452 1068.7415113224026 -662.3000403678019 1182.8399802361157 -415.59248822056406C1296.9384491498286 -168.88493607332612 1319.457120212037 243.81344945394858 1163.9379365039297 622.1092544899032 "></path><path d="M1159.1174354470597 -390.87762537024867C1269.7583749997511 -151.64605965171495 1291.594662090377 248.5463141929149 1140.788180918879 615.378609985356C989.9816997473815 982.2109057777966 765.162732279048 1362.53675714957 435.2463258238686 1369.9173944334652C105.32991936868962 1377.2980317173615 -385.02591371908863 975.7060268208745 -442.8105700659791 650.8056689480543C-500.5952264128696 325.9053110752343 -61.395491543691946 57.00787964635583 157.87997535879572 -189.60432335607356C377.15544226128327 -436.21652635850313 401.12053354757336 -491.00096754398555 609.7116710659616 -532.9329054636049C818.3028085843496 -574.8648433832243 1048.4764958943683 -630.1091910887824 1159.1174354470597 -390.87762537024867C1269.7583749997511 -151.64605965171495 1291.594662090377 248.5463141929149 1140.788180918879 615.378609985356 "></path><path d="M1135.3951347986285 -366.16264044962077C1242.5785449902985 -134.40706115979128 1263.7324481093424 253.2793010021942 1117.6386694744538 608.6480875511211C971.5448908395656 964.0168741000482 753.7515161046172 1332.4575426164533 434.1449973511624 1339.6075349852272C114.53847859770758 1346.7575273540015 -360.4937347060776 957.7152726105298 -416.47262054212774 642.9680509212353C-472.45150637817784 328.22082923194057 -46.97676322366203 67.7264425352148 165.4463453381229 -171.17912912338875C377.86945389990797 -410.0847007819923 401.0856360835014 -463.15712818042834 603.1583005544398 -503.77869304005964C805.2309650253783 -544.4002578996909 1028.2117246069588 -597.9182197394503 1135.3951347986285 -366.16264044962077C1242.5785449902985 -134.40706115979128 1263.7324481093424 253.2793010021942 1117.6386694744538 608.6480875511211 "></path><path d="M1111.672712079885 -341.4478081168835C1215.3985929105334 -117.16821525575813 1235.8701120579951 258.0121352235824 1094.489035959716 601.9174125289958C953.1079598614369 945.8226898344092 742.3401778598738 1302.3781754954462 433.04354680814345 1309.2975229490985C123.74691575641305 1316.2168704027513 -335.961677763379 939.7243658122945 -390.1347930885888 635.1302803065257C-444.3079084137986 330.5361948007567 -32.558156973944506 78.44485283618326 173.0125932471376 -152.75408747859433C378.5833434682197 -383.9530277933721 401.05061654911674 -435.3134414047618 596.6048079726056 -474.624633204405C792.1589993960945 -513.9358250040482 1007.9468312492368 -565.7274009780089 1111.672712079885 -341.4478081168835C1215.3985929105334 -117.16821525575813 1235.8701120579951 258.0121352235824 1094.489035959716 601.9174125289958 "></path><path d="M1087.9502588435635 -316.73279267867747C1188.21861031319 -99.92918624625622 1208.0077454890695 262.7451525504398 1071.3393719274 595.1869206123392C934.6709983657299 927.6286886742387 730.9288090975526 1272.2989914799082 431.9420657475466 1278.9876940184386C132.95532239754039 1285.676396556969 -311.42965133825857 921.733642119528 -363.796996152628 627.2926927972846C-416.16434096699754 332.8517434750413 -18.139581241805217 89.16344624262035 180.57881063857417 -134.3288627283314C379.29720251895355 -357.8211716992831 401.01556649715394 -407.46957152362654 590.0512848731933 -445.4703902632816C779.0870032492323 -483.4712090029367 987.6819073739368 -533.5363991110987 1087.9502588435635 -316.73279267867747C1188.21861031319 -99.92918624625622 1208.0077454890695 262.7451525504398 1071.3393719274 595.1869206123392 "></path><path d="M1064.2278361248198 -292.01780775804957C1161.038658233425 -82.69018775433256 1180.1454094377225 267.4781393597186 1048.1897384126619 588.4563981781043C916.2340673876015 909.43465699649 719.5174708528095 1242.2197769467916 430.8406152045277 1248.6778345702005C142.16375955624585 1255.135892193609 -286.89759439555996 903.7428879091833 -337.45916869908916 619.4550747704654C-388.0207430026183 335.1672616317478 -3.720974992087804 99.88200913147932 188.14505854758886 -115.90366849564657C380.0110920872655 -331.68934612277224 400.98054696276927 -379.6257321600694 583.497792291359 -416.3161778397363C766.0150376199485 -453.00662351940326 967.4170140162148 -501.3454277617666 1064.2278361248198 -292.01780775804957C1161.038658233425 -82.69018775433256 1180.1454094377225 267.4781393597186 1048.1897384126619 588.4563981781043 "></path><path d="M1040.5054134060763 -267.3029449077342C1133.8587061536596 -65.45131133272139 1152.283073386375 272.2110040986852 1025.040104897924 581.7257536735572C897.7971364094728 891.2405032484289 708.1061326080662 1212.1404403433626 429.73916466150877 1218.36785305165C151.37219671495154 1224.5952657599369 -262.3655374528614 885.7520116285261 -311.12134124555024 611.617334673334C-359.87714503823906 337.48265771814204 10.69763125762961 110.60044995002579 195.71130645660355 -97.47859633327403C380.72498165557727 -305.5576426165739 400.9455274283846 -351.78201486682474 576.9442997095248 -387.16208748650354C752.9430719906645 -422.5421601061824 947.1521206584928 -469.154578482747 1040.5054134060763 -267.3029449077342C1133.8587061536596 -65.45131133272139 1152.283073386375 272.2110040986852 1025.040104897924 581.7257536735572 "></path><path d="M1016.7829906873326 -242.58805153984065C1106.6787540738947 -48.21240439353198 1124.420737335028 276.94389935522986 1001.890471383186 574.9951396865881C879.3602054313442 873.0463800179461 696.6947943633229 1182.0611342575119 428.63771411848984 1188.0579020506773C160.580633873657 1194.0546698438427 -237.83348051016287 867.7611658654471 -284.7835137920114 603.7796250937804C-331.7335470738599 339.79808432211394 25.116237507347023 121.3189212861505 203.27755436561824 -79.05349365332359C381.43887122388946 -279.42590859279744 400.91050789400015 -323.9382670560019 570.3908071276906 -358.0079666156927C739.8711063613807 -392.0776661753834 926.8872273007707 -436.9636986861493 1016.7829906873326 -242.58805153984065C1106.6787540738947 -48.21240439353198 1124.420737335028 276.94389935522986 1001.890471383186 574.9951396865881 "></path><path d="M993.0605679685891 -217.873127654369C1079.4988019941295 -30.97346693676468 1096.5584012836807 281.67682512935255 978.7408378684481 568.264556217197C860.9232744532158 854.8522873050413 685.28345611858 1151.981858689239 427.53626357547114 1157.7479815672825C169.78907103236247 1163.514104445326 -213.30142356746427 849.7703506199459 -258.44568633847246 595.941946031805C-303.58994910948064 342.1135414436644 39.534843757064436 132.03742313985322 210.84380227463294 -60.62836045579479C382.1527607922013 -253.29414405144286 400.8754883596155 -296.094488727601 563.8373145458563 -328.85381522730364C726.7991407320969 -361.6131417270063 906.622333943049 -404.7727883719735 993.0605679685891 -217.873127654369C1079.4988019941295 -30.97346693676468 1096.5584012836807 281.67682512935255 978.7408378684481 568.264556217197 "></path><path d="M969.3381452498456 -193.15823428647553C1052.3188499143641 -13.734559997575161 1068.6960652323335 286.40972038589723 955.5912043537103 561.5339422302277C842.4863434750871 836.6581640745585 673.8721178738365 1121.9025526033884 426.4348130324523 1127.43803056631C178.99750819106794 1132.973508529232 -188.76936662476572 831.7795048568669 -232.10785888493353 588.1042364522516C-275.4463511451014 344.4289680476363 53.95345000678185 142.7558944759778 218.4100501836475 -42.20325777584435C382.8666503605133 -227.1624100276664 400.8404688252308 -268.2507409167782 557.2838219640221 -299.6996943564927C713.7271751028129 -331.1486477962073 886.3574405853269 -372.5819085753758 969.3381452498456 -193.15823428647553C1052.3188499143641 -13.734559997575161 1068.6960652323335 286.40972038589723 955.5912043537103 561.5339422302277 "></path><path d="M945.6156614959457 -168.4432188482695C1025.1388367994427 3.5044690119266306 1040.83366814583 291.1427377127544 932.441509803816 554.8034503135714C824.049351461802 818.4641629143882 662.4607185939371 1091.82336858785 425.33330145427726 1097.1282016356502C188.20588431461715 1102.4330346834504 -164.23737071722337 813.7887811641003 -205.77009246655092 580.2666489430108C-247.3028142158784 346.7445167219213 68.37199522134301 153.4744878824149 225.97623705750595 -23.77803302558118C383.580478893669 -201.03055393357744 400.80538825569 -240.40687103564295 550.7302683470316 -270.54545141536937C700.6551484383729 -300.6840317950958 866.0924861924486 -340.39090670846565 945.6156614959457 -168.4432188482695C1025.1388367994427 3.5044690119266306 1040.83366814583 291.1427377127544 932.441509803816 554.8034503135714 "></path><path d="M921.8932998123585 -143.7283559979541C997.9589457548338 20.743345433537797 1012.971393129639 295.87560245172097 909.2919373242344 548.072805809024C805.6124815188296 800.2700091663271 651.0494413843503 1061.744031984421 424.2319119464147 1066.8182201170996C197.41438250847887 1071.8924082497779 -139.70525273936858 795.7979048834432 -179.43220397785575 572.4289088458793C-219.15915521634292 349.0599128083153 82.79066250621668 164.19292870096137 233.542546001677 -5.352960863208864C384.2944294971371 -174.8988504273791 400.77042975646157 -212.56315374239824 544.1768368003534 -241.39136106213658C687.5832438442453 -270.2195683818749 845.8276538698831 -308.2000574294461 921.8932998123585 -143.7283559979541C997.9589457548338 20.743345433537797 1012.971393129639 295.87560245172097 909.2919373242344 548.072805809024 "></path><path d="M898.1709076111929 -119.01343211248252C970.7790241926468 37.982282890305214 985.10908759587 300.60852822584366 886.1423343270746 541.3422223396328C787.1755810582792 782.0759164534222 639.6381336571853 1031.6647564161483 423.1304919209739 1036.508299633705C206.62285018476257 1041.3518428512616 -115.17316527909185 777.807089637942 -153.09434600673876 564.5912297839038C-191.01552673438562 351.37536992986554 97.20929927351222 174.9114305546641 241.10882442826983 13.072172334319816C385.0083495830273 -148.76708588602452 400.73544073965513 -184.71937541399734 537.6233747360973 -212.23720967374754C674.5113087325394 -239.7550439334978 825.5627910297392 -276.00914711527025 898.1709076111929 -119.01343211248252C970.7790241926468 37.982282890305214 985.10908759587 300.60852822584366 886.1423343270746 541.3422223396328 "></path><path d="M874.4484848924494 -94.29844719185462C943.5990721128817 55.221281382228995 957.2467515445226 305.3415150351227 862.9927008123368 534.6116999053982C768.7386500801506 763.8818847756738 628.226795412442 1001.585541883032 422.02904137795497 1006.1984401854668C215.83128734346815 1010.8113384879016 -90.6411083363933 759.8163354275976 -126.75651855319984 556.7536117570849C-162.87192877000638 353.69088808657204 111.62790552322963 185.62999344352318 248.6750723372844 31.497366567004747C385.7222391513392 -122.63526030951368 400.70042120527046 -156.8755360504402 531.069882154263 -183.0829972502023C661.4393431032556 -209.29045844996438 805.2978976720174 -243.81817576593818 874.4484848924494 -94.29844719185462C943.5990721128817 55.221281382228995 957.2467515445226 305.3415150351227 862.9927008123368 534.6116999053982 "></path><path d="M850.7260316561278 -69.58358434153922C916.4190895155384 72.46015780384016 929.3843849755974 310.07437977408927 839.8430367800206 527.881055400851C750.3016885844438 745.6877310276127 616.8154266501206 971.5062052796031 420.92756031735803 975.8884586669162C225.0396939845955 980.2707120542293 -66.10908191127282 741.8254591469404 -100.41872161723904 548.9158716599532C-134.72836132320526 356.00628417296616 126.04648125536892 196.34843426206976 256.241289728721 49.92243872937718C386.436098202073 -96.50355680331535 400.6653711533078 -129.03181875719554 524.5163590548507 -153.92890689696952C648.3673469563937 -178.8259950367435 785.0329737967172 -211.6273264869186 850.7260316561278 -69.58358434153922C916.4190895155384 72.46015780384016 929.3843849755974 310.07437977408927 839.8430367800206 527.881055400851 "></path><path d="M827.0036089373841 -44.86866045606757C889.239137435773 89.69909526060769 901.5220489242502 314.80730554821207 816.6934032652825 521.1504719314601C731.8647576063152 727.4936383147078 605.4040884053775 941.4269297113303 419.8261097743392 945.5785381835219C234.24813114330095 949.7301466557133 -41.57702496857428 723.8346439014394 -74.08089416370018 541.0781925979779C-106.58476335882608 358.3217412945164 140.46508750508633 207.06693611577248 263.80753763773566 68.34757192690586C387.149987770385 -70.37179226196076 400.6303516189231 -101.18804042879458 517.9628664730164 -124.77475550858048C635.2953813271097 -148.3614705883664 764.7680804389952 -179.43641617274278 827.0036089373841 -44.86866045606757C889.239137435773 89.69909526060769 901.5220489242502 314.80730554821207 816.6934032652825 521.1504719314601 "></path><path d="M803.2811862186406 -20.15367553543973C862.0591853560079 106.93809375253136 873.6597128729029 319.5402923574909 793.5437697505449 514.4199494972252C713.4278266281867 709.2996066369592 593.9927501606343 911.347715178214 418.7246592313204 915.2686787352834C243.45656830200642 919.189642292353 -17.044968025875733 705.8438896910943 -47.74306671016126 533.2405745711587C-78.44116539444684 360.6372594512229 154.88369375480374 217.78549900463145 271.37378554675036 86.77276615959067C387.86387733869697 -44.23996668544987 400.59533208453854 -73.34420106523743 511.4093738911822 -95.62054308503525C622.2234156978259 -117.89688510483302 744.5031870812732 -147.2454448234107 803.2811862186406 -20.15367553543973C862.0591853560079 106.93809375253136 873.6597128729029 319.5402923574909 793.5437697505449 514.4199494972252 "></path><path d="M779.5587634998969 4.561187314875667C834.8792332762428 124.17697017414253 845.7973768215556 324.27315709645745 770.3941362358069 507.689304992678C694.9908956500581 691.1054528888983 582.5814119158912 881.268378574785 417.6232086883015 884.9586972167326C252.665005460712 888.6490158586807 7.48708891682287 687.8530134104371 -21.405239256622394 525.4028344740271C-50.2975674300676 362.95265553761715 169.30230000452116 228.50393982317792 278.94003345576505 105.19783832196322C388.5777669070088 -18.108263179251594 400.56031255015387 -45.500483771992776 504.855881309348 -66.46645273180246C609.151450068542 -87.43242169161215 724.2382937235514 -115.05459554439119 779.5587634998969 4.561187314875667C834.8792332762428 124.17697017414253 845.7973768215556 324.27315709645745 770.3941362358069 507.689304992678 "></path><path d="M755.8363407811535 29.276111200347316C807.6992811964776 141.41590763090994 817.9350407702086 329.00608287058026 747.2445027210688 500.95872152328695C676.5539646719294 672.9113601759937 571.1700736711479 851.1891030065121 416.52175814528266 854.6487767333383C261.87344261941746 858.1084504601647 32.019145859521416 669.8621981649362 4.932588196916527 517.5651554120519C-22.153969465688363 365.2681126591674 183.72090625423868 239.22244167688063 286.50628136477974 123.6229715194919C389.2916564753208 8.023501362103048 400.5252930157693 -17.656705443591875 498.30238872751374 -37.312301343413424C596.0794844392582 -56.96789724323503 703.9734003658293 -82.86368523021537 755.8363407811535 29.276111200347316C807.6992811964776 141.41590763090994 817.9350407702086 329.00608287058026 747.2445027210688 500.95872152328695 "></path><path d="M732.11391806241 53.991096120975214C780.5193291167125 158.65490612283372 790.0727047188611 333.7390696798593 724.0948692063309 494.22819908905217C658.1170336938007 654.717328498245 559.7587354264048 821.1098884733958 415.42030760226385 824.3389172851003C271.0818797781229 827.5679460968045 56.55120280222002 651.8714439545915 31.270415650455448 509.7275373852327C5.989628498690877 367.5836308158739 198.1395125039561 249.9410045657396 294.07252927379443 142.04816575217671C390.00554604363276 34.15532693861388 400.49027348138463 10.187133919965333 491.7488961456795 -8.158088919868192C583.0075188099743 -26.50331175970166 683.7085070081074 -50.67271388088329 732.11391806241 53.991096120975214C780.5193291167125 158.65490612283372 790.0727047188611 333.7390696798593 724.0948692063309 494.22819908905217 "></path><path d="M708.3914953436663 78.70595897129061C753.3393770369473 175.893782544445 762.2103686675141 338.47193441882587 700.945235691593 487.497554584505C639.6801027156721 636.523174750184 548.3473971816614 791.030551869967 414.3188570592449 794.0289357665497C280.2903169368285 797.0273196631324 81.08325974491856 633.8805676739345 57.60824310399431 501.88979728810114C34.13322646307006 369.8990269022679 212.5581187536735 260.6594453842862 301.6387771828091 160.47323791454914C390.71943561194473 60.28703044481222 400.4552539470001 38.030851213209985 485.1954035638453 20.996001433364597C569.9355531806904 3.9611516535192095 663.4436136503854 -18.48186460186372 708.3914953436663 78.70595897129061C753.3393770369473 175.893782544445 762.2103686675141 338.47193441882587 700.945235691593 487.497554584505 "></path><path d="M684.6690726249228 103.42094389191845C726.1594249571821 193.13278103636867 734.3480326161667 343.2049212281049 677.7956021768551 480.7670321502701C621.2431717375435 618.3291430724355 536.9360589369182 760.9513373368504 413.2174065162262 763.7190763183112C289.49875409553397 766.4868152997724 105.61531668761717 615.8898134635897 83.94607055753323 494.05217926128205C62.2768244274493 372.2145450589744 226.97672500339092 271.37800827314516 309.2050250918237 178.89843214723408C391.4333251802566 86.41885602132305 400.4202344126154 65.87469057676714 478.64191098201104 50.150213856909886C556.8635875514065 34.425737137052636 643.1787202926635 13.709106747468354 684.6690726249228 103.42094389191845C726.1594249571821 193.13278103636867 734.3480326161667 343.2049212281049 677.7956021768551 480.7670321502701 "></path><path d="M660.9466499061792 128.1358677773901C698.9794728774169 210.3717184931361 706.4856965648195 347.9378470022277 654.6459686621172 474.0364486808792C602.8062407594148 600.1350503595307 525.5247206921752 730.8720617685776 412.1159559732073 733.4091558349169C298.70719125423943 735.9462499012561 130.1473736303157 597.8989982180888 110.2838980110721 486.2145001993068C90.42042239182854 374.5300021805249 241.39533125310834 282.0965101268479 316.7712730008385 197.32356534476276C392.14721474856856 112.55062056267764 400.3852148782307 93.71846890516804 472.0884184001767 79.30436524529887C543.7916219221227 64.89026158542976 622.9138269349415 45.90001706164418 660.9466499061792 128.1358677773901C698.9794728774169 210.3717184931361 706.4856965648195 347.9378470022277 654.6459686621172 474.0364486808792 "></path><path d="M637.2242271874356 152.85076114528363C671.7995207976518 227.61062543232543 678.6233605134722 352.6707422587723 631.4963351473793 467.30583469391C584.3693097812862 581.9409271290479 514.113382447432 700.7927556827269 411.01450543018836 703.0992048339443C307.915628412945 705.4056539851617 154.67943057301432 579.9081524550097 136.62172546461102 478.37679061975336C118.56402035620772 376.845428784497 255.81393750282575 292.8149814629726 324.3375209098531 215.7486680247133C392.8611043168805 138.6823545864541 400.35019534384617 121.56221671599087 465.53492581834246 108.45848611610978C530.7196562928387 95.35475551622875 602.6489335772196 78.09089685824188 637.2242271874356 152.85076114528363C671.7995207976518 227.61062543232543 678.6233605134722 352.6707422587723 631.4963351473793 467.30583469391 "></path><path d="M613.501789209903 177.56565451317715C644.6195534590975 244.84953237151478 650.761009203336 357.403637515317 608.3466863738522 460.57522070694097C565.9323635443685 563.7468038985648 502.7020289438997 670.7134495968761 409.9130396283806 672.7892538329719C317.1240503128614 674.8650580690676 179.2114722569238 561.9173066919307 162.95953765936088 470.5390810401999C146.7076030617979 379.16085538846914 270.2325284937541 303.5334527990972 331.9037535600787 234.17377070466387C393.57497862640344 164.81408861023056 400.31516055067254 149.40596452681365 458.98141797771916 137.6126069869207C517.6476754047658 125.81924944702774 582.3840249607085 110.28177665483952 613.501789209903 177.56565451317715C644.6195534590975 244.84953237151478 650.761009203336 357.403637515317 608.3466863738522 460.57522070694097 "></path><path d="M589.7793664911594 202.2805783986488C617.4396013793323 262.0884698282822 622.8986731519888 362.13656328943966 585.1970528591144 453.84463723754993C547.49543256624 545.5527111856601 491.2906906991566 640.6341740286034 408.8115890853617 642.4793333495772C326.33248747156694 644.3244926705513 203.74352919962234 543.9264914464295 189.29736511289974 462.70140197822457C174.85120102617714 381.4763125100195 284.6511347434715 314.2519546527999 339.47000146909346 252.59890390219255C394.2888681947154 190.94585315158514 400.28014101628787 177.24974285521455 452.4279253958849 166.76675837530973C504.575709775482 156.28377389540486 562.1191316029866 142.47268696901534 589.7793664911594 202.2805783986488C617.4396013793323 262.0884698282822 622.8986731519888 362.13656328943966 585.1970528591144 453.84463723754993 "></path><path d="M566.056959031205 226.99553280169852C590.2596645583562 279.3274378026278 595.0363523594306 366.8695195811406 562.0474346031655 447.114084285737C529.0585168469004 527.3586489903334 479.8793677132023 610.5549289779088 407.7101538011319 612.1694433837611C335.54093988906146 613.7839577896132 228.27560140111 525.9357067185067 215.63520782522772 454.86375343382724C202.99481424934544 383.7918001491479 299.06975625197805 324.97048702408074 347.0362646368972 271.0240676172993C395.00277302181644 217.07764821051785 400.24513674069226 205.09355170119358 445.87444807283975 195.92094028127684C491.50375940498714 186.7483288613601 541.8542535040538 174.6636278007693 566.056959031205 226.99553280169852C590.2596645583562 279.3274378026278 595.0363523594306 366.8695195811406 562.0474346031655 447.114084285737 "></path><path d="M542.3345210536723 251.71045668717016C563.079697219802 296.5663752593953 567.1740010492942 371.6024453552634 538.8977858296385 440.383500816346C510.62157060998265 509.1645562774287 468.46801420967006 580.4756534096362 406.60868799932405 581.8595229003665C344.7493617889779 583.2433923910971 252.8076430850195 507.9448914730058 241.97302001997753 447.026074371852C231.13839695493562 386.10725727069814 313.4883472429064 335.6889888777835 354.6024972871228 289.449200814828C395.71664733133923 243.20941275187243 400.21010194751864 232.93733002959453 439.32094023221646 225.07509166966588C478.43177851691416 217.21285330973723 521.5893448875427 206.85453811494511 542.3345210536723 251.71045668717016C563.079697219802 296.5663752593953 567.1740010492942 371.6024453552634 538.8977858296385 440.383500816346 "></path><path d="M518.6120983349288 276.4253500550637C535.8997451400369 313.80528219858456 539.311664997947 376.335340611808 515.7481523149006 433.65288682937694C492.184639631854 490.9704330469458 457.05667596492685 550.3963473237853 405.5072374563051 551.5495718993941C353.95779894768344 552.7027964750027 277.3397000277181 489.95404570992673 268.31084747351645 439.18836479229856C259.2819949193148 388.4226838746704 327.9069534926238 346.40746021390817 362.1687451961375 307.87430349477853C396.4305368996512 269.34114677564895 400.175082413134 260.7810778404173 432.76744765038217 254.2292125404768C465.35981288763037 247.67734724053622 501.32445152982075 239.0454179115428 518.6120983349288 276.4253500550637C535.8997451400369 313.80528219858456 539.311664997947 376.335340611808 515.7481523149006 433.65288682937694 "></path><path d="M494.8896756161852 301.14030445811346C508.7197930602716 331.04425017293016 511.44932894659985 381.0682969035089 492.59851880016265 426.92233387756403C473.74770865372545 472.77637085161905 445.64533772018376 520.3171022730908 404.4057869132863 521.2396819335777C363.16623610638896 522.1622615940647 301.87175697041664 471.9632609820038 294.64867492705537 431.35071624790135C287.42559288369404 390.7381715137988 342.3255597423412 357.125992585189 369.73499310515217 326.29946720988534C397.14442646796317 295.47294183458166 400.1400628787494 288.62488668639634 426.21395506854793 283.3833944464439C452.28784725834646 278.1419022064915 481.05955817209883 271.23635874329676 494.8896756161852 301.14030445811346C508.7197930602716 331.04425017293016 511.44932894659985 381.0682969035089 492.59851880016265 426.92233387756403 "></path><path d="M471.1672681562307 325.8552283435851C481.53985623929555 348.28318762969764 483.58700815404165 385.8012226776317 469.44890054421376 420.191750408173C455.31079293438586 454.5822781387144 434.23401473422956 490.2378267048181 403.30435162905655 490.92976145018326C372.3746885238835 491.62169619554857 326.4038291719043 453.9724457365029 320.9865176393833 423.513037185926C315.56920610686234 393.05362863534907 356.74418125084776 367.84449443889173 377.3012562729559 344.724600407414C397.85833129506415 321.60470637593625 400.10505860315385 316.46866501479724 419.66047774550276 312.53754583483294C439.2158968878516 308.60642665486864 460.79468007316586 303.42726905747253 471.1672681562307 325.8552283435851C481.53985623929555 348.28318762969764 483.58700815404165 385.8012226776317 469.44890054421376 420.191750408173 "></path><path d="M447.4448454374871 350.5701522290567C454.35990415953034 365.5221250864651 455.72467210269446 390.53414845175445 446.29926702947586 413.461166938782C436.87386195625726 436.3881854258095 422.8226764894864 460.1585511365454 402.2029010860377 460.61984096678884C381.583125682589 461.08113079703236 350.93588611460285 435.9816304910019 347.3243450929222 415.6753581239507C343.7128040712415 395.3690857568994 371.1627875005652 378.5629962925945 384.8675041819706 363.14973360494264C398.5722208633761 347.73647091729083 400.07003906876923 344.3124433431982 413.10698516366847 341.691697223222C426.14393125856776 339.07095110324576 440.52978671544395 335.61817937164835 447.4448454374871 350.5701522290567C454.35990415953034 365.5221250864651 455.72467210269446 390.53414845175445 446.29926702947586 413.461166938782 "></path><path d="M423.7224227187436 375.28507611452835C427.1799520797652 382.7610625432325 427.86233605134726 395.26707422587725 423.1496335147379 406.73058346939104C418.4369309781286 418.19409271290476 411.4113382447432 430.0792755682727 401.10145054301887 430.3099204833944C390.7915628412945 430.54056539851615 375.46794305730145 417.990815245501 373.6621725464611 407.83767906197534C371.85640203562076 397.6845428784497 385.5813937502826 389.2814981462973 392.4337520909853 381.5748668024713C399.28611043168803 373.8682354586454 400.0350195343846 372.1562216715991 406.55349258183423 370.84584861161096C413.07196562928385 369.5354755516229 420.264893357722 367.8090896858242 423.7224227187436 375.28507611452835C427.1799520797652 382.7610625432325 427.86233605134726 395.26707422587725 423.1496335147379 406.73058346939104 "></path></g></svg>