<svg xmlns="http://www.w3.org/2000/svg" version="1.1" xmlns:xlink="http://www.w3.org/1999/xlink" xmlns:svgjs="http://svgjs.dev/svgjs" viewBox="0 0 800 800" opacity="1"><defs><linearGradient gradientTransform="rotate(270)" x1="50%" y1="0%" x2="50%" y2="100%" id="sssquiggly-grad"><stop stop-color="hsl(224.651, 100%, 66%)" stop-opacity="1" offset="0%"></stop><stop stop-color="hsl(304.471, 100%, 70%)" stop-opacity="1" offset="100%"></stop></linearGradient></defs><g stroke-width="3" stroke="url(#sssquiggly-grad)" fill="none" stroke-linecap="round" transform="matrix(1,0,0,1,-5,-473.46387481689453)"><path d="M10,10C26.435185185185183,17.916666666666664,53.93518518518518,53.625,88.88888888888889,48C123.84259259259258,42.375,140.74074074074073,-16.583333333333332,177.77777777777777,-17C214.8148148148148,-17.416666666666668,229.6296296296296,48.5,266.66666666666663,46C303.7037037037037,43.5,318.5185185185185,-24,355.55555555555554,-29C392.5925925925926,-34,407.40740740740745,27.416666666666664,444.44444444444446,22C481.48148148148147,16.583333333333336,496.29629629629625,-57.708333333333336,533.3333333333333,-55C570.3703703703703,-52.291666666666664,585.1851851851851,30.208333333333332,622.2222222222222,35C659.2592592592592,39.791666666666664,674.074074074074,-35.958333333333336,711.1111111111111,-32C748.1481481481482,-28.041666666666668,781.4814814814815,36.08333333333333,800,54"></path><path d="M10,10C26.435185185185183,17.916666666666664,53.93518518518518,53.625,88.88888888888889,48C123.84259259259258,42.375,140.74074074074073,-16.583333333333332,177.77777777777777,-17C214.8148148148148,-17.416666666666668,229.6296296296296,48.5,266.66666666666663,46C303.7037037037037,43.5,318.5185185185185,-24,355.55555555555554,-29C392.5925925925926,-34,407.40740740740745,27.416666666666664,444.44444444444446,22C481.48148148148147,16.583333333333336,496.29629629629625,-57.708333333333336,533.3333333333333,-55C570.3703703703703,-52.291666666666664,585.1851851851851,30.208333333333332,622.2222222222222,35C659.2592592592592,39.791666666666664,674.074074074074,-35.958333333333336,711.1111111111111,-32C748.1481481481482,-28.041666666666668,781.4814814814815,36.08333333333333,800,54" transform="matrix(1,0,0,1,0,1748)"></path><path d="M10,10C26.435185185185183,17.916666666666664,53.93518518518518,53.625,88.88888888888889,48C123.84259259259258,42.375,140.74074074074073,-16.583333333333332,177.77777777777777,-17C214.8148148148148,-17.416666666666668,229.6296296296296,48.5,266.66666666666663,46C303.7037037037037,43.5,318.5185185185185,-24,355.55555555555554,-29C392.5925925925926,-34,407.40740740740745,27.416666666666664,444.44444444444446,22C481.48148148148147,16.583333333333336,496.29629629629625,-57.708333333333336,533.3333333333333,-55C570.3703703703703,-52.291666666666664,585.1851851851851,30.208333333333332,622.2222222222222,35C659.2592592592592,39.791666666666664,674.074074074074,-35.958333333333336,711.1111111111111,-32C748.1481481481482,-28.041666666666668,781.4814814814815,36.08333333333333,800,54" transform="matrix(1,0,0,1,0,1725)"></path><path d="M10,10C26.435185185185183,17.916666666666664,53.93518518518518,53.625,88.88888888888889,48C123.84259259259258,42.375,140.74074074074073,-16.583333333333332,177.77777777777777,-17C214.8148148148148,-17.416666666666668,229.6296296296296,48.5,266.66666666666663,46C303.7037037037037,43.5,318.5185185185185,-24,355.55555555555554,-29C392.5925925925926,-34,407.40740740740745,27.416666666666664,444.44444444444446,22C481.48148148148147,16.583333333333336,496.29629629629625,-57.708333333333336,533.3333333333333,-55C570.3703703703703,-52.291666666666664,585.1851851851851,30.208333333333332,622.2222222222222,35C659.2592592592592,39.791666666666664,674.074074074074,-35.958333333333336,711.1111111111111,-32C748.1481481481482,-28.041666666666668,781.4814814814815,36.08333333333333,800,54" transform="matrix(1,0,0,1,0,1702)"></path><path d="M10,10C26.435185185185183,17.916666666666664,53.93518518518518,53.625,88.88888888888889,48C123.84259259259258,42.375,140.74074074074073,-16.583333333333332,177.77777777777777,-17C214.8148148148148,-17.416666666666668,229.6296296296296,48.5,266.66666666666663,46C303.7037037037037,43.5,318.5185185185185,-24,355.55555555555554,-29C392.5925925925926,-34,407.40740740740745,27.416666666666664,444.44444444444446,22C481.48148148148147,16.583333333333336,496.29629629629625,-57.708333333333336,533.3333333333333,-55C570.3703703703703,-52.291666666666664,585.1851851851851,30.208333333333332,622.2222222222222,35C659.2592592592592,39.791666666666664,674.074074074074,-35.958333333333336,711.1111111111111,-32C748.1481481481482,-28.041666666666668,781.4814814814815,36.08333333333333,800,54" transform="matrix(1,0,0,1,0,1679)"></path><path d="M10,10C26.435185185185183,17.916666666666664,53.93518518518518,53.625,88.88888888888889,48C123.84259259259258,42.375,140.74074074074073,-16.583333333333332,177.77777777777777,-17C214.8148148148148,-17.416666666666668,229.6296296296296,48.5,266.66666666666663,46C303.7037037037037,43.5,318.5185185185185,-24,355.55555555555554,-29C392.5925925925926,-34,407.40740740740745,27.416666666666664,444.44444444444446,22C481.48148148148147,16.583333333333336,496.29629629629625,-57.708333333333336,533.3333333333333,-55C570.3703703703703,-52.291666666666664,585.1851851851851,30.208333333333332,622.2222222222222,35C659.2592592592592,39.791666666666664,674.074074074074,-35.958333333333336,711.1111111111111,-32C748.1481481481482,-28.041666666666668,781.4814814814815,36.08333333333333,800,54" transform="matrix(1,0,0,1,0,1656)"></path><path d="M10,10C26.435185185185183,17.916666666666664,53.93518518518518,53.625,88.88888888888889,48C123.84259259259258,42.375,140.74074074074073,-16.583333333333332,177.77777777777777,-17C214.8148148148148,-17.416666666666668,229.6296296296296,48.5,266.66666666666663,46C303.7037037037037,43.5,318.5185185185185,-24,355.55555555555554,-29C392.5925925925926,-34,407.40740740740745,27.416666666666664,444.44444444444446,22C481.48148148148147,16.583333333333336,496.29629629629625,-57.708333333333336,533.3333333333333,-55C570.3703703703703,-52.291666666666664,585.1851851851851,30.208333333333332,622.2222222222222,35C659.2592592592592,39.791666666666664,674.074074074074,-35.958333333333336,711.1111111111111,-32C748.1481481481482,-28.041666666666668,781.4814814814815,36.08333333333333,800,54" transform="matrix(1,0,0,1,0,1633)"></path><path d="M10,10C26.435185185185183,17.916666666666664,53.93518518518518,53.625,88.88888888888889,48C123.84259259259258,42.375,140.74074074074073,-16.583333333333332,177.77777777777777,-17C214.8148148148148,-17.416666666666668,229.6296296296296,48.5,266.66666666666663,46C303.7037037037037,43.5,318.5185185185185,-24,355.55555555555554,-29C392.5925925925926,-34,407.40740740740745,27.416666666666664,444.44444444444446,22C481.48148148148147,16.583333333333336,496.29629629629625,-57.708333333333336,533.3333333333333,-55C570.3703703703703,-52.291666666666664,585.1851851851851,30.208333333333332,622.2222222222222,35C659.2592592592592,39.791666666666664,674.074074074074,-35.958333333333336,711.1111111111111,-32C748.1481481481482,-28.041666666666668,781.4814814814815,36.08333333333333,800,54" transform="matrix(1,0,0,1,0,1610)"></path><path d="M10,10C26.435185185185183,17.916666666666664,53.93518518518518,53.625,88.88888888888889,48C123.84259259259258,42.375,140.74074074074073,-16.583333333333332,177.77777777777777,-17C214.8148148148148,-17.416666666666668,229.6296296296296,48.5,266.66666666666663,46C303.7037037037037,43.5,318.5185185185185,-24,355.55555555555554,-29C392.5925925925926,-34,407.40740740740745,27.416666666666664,444.44444444444446,22C481.48148148148147,16.583333333333336,496.29629629629625,-57.708333333333336,533.3333333333333,-55C570.3703703703703,-52.291666666666664,585.1851851851851,30.208333333333332,622.2222222222222,35C659.2592592592592,39.791666666666664,674.074074074074,-35.958333333333336,711.1111111111111,-32C748.1481481481482,-28.041666666666668,781.4814814814815,36.08333333333333,800,54" transform="matrix(1,0,0,1,0,1587)"></path><path d="M10,10C26.435185185185183,17.916666666666664,53.93518518518518,53.625,88.88888888888889,48C123.84259259259258,42.375,140.74074074074073,-16.583333333333332,177.77777777777777,-17C214.8148148148148,-17.416666666666668,229.6296296296296,48.5,266.66666666666663,46C303.7037037037037,43.5,318.5185185185185,-24,355.55555555555554,-29C392.5925925925926,-34,407.40740740740745,27.416666666666664,444.44444444444446,22C481.48148148148147,16.583333333333336,496.29629629629625,-57.708333333333336,533.3333333333333,-55C570.3703703703703,-52.291666666666664,585.1851851851851,30.208333333333332,622.2222222222222,35C659.2592592592592,39.791666666666664,674.074074074074,-35.958333333333336,711.1111111111111,-32C748.1481481481482,-28.041666666666668,781.4814814814815,36.08333333333333,800,54" transform="matrix(1,0,0,1,0,1564)"></path><path d="M10,10C26.435185185185183,17.916666666666664,53.93518518518518,53.625,88.88888888888889,48C123.84259259259258,42.375,140.74074074074073,-16.583333333333332,177.77777777777777,-17C214.8148148148148,-17.416666666666668,229.6296296296296,48.5,266.66666666666663,46C303.7037037037037,43.5,318.5185185185185,-24,355.55555555555554,-29C392.5925925925926,-34,407.40740740740745,27.416666666666664,444.44444444444446,22C481.48148148148147,16.583333333333336,496.29629629629625,-57.708333333333336,533.3333333333333,-55C570.3703703703703,-52.291666666666664,585.1851851851851,30.208333333333332,622.2222222222222,35C659.2592592592592,39.791666666666664,674.074074074074,-35.958333333333336,711.1111111111111,-32C748.1481481481482,-28.041666666666668,781.4814814814815,36.08333333333333,800,54" transform="matrix(1,0,0,1,0,1541)"></path><path d="M10,10C26.435185185185183,17.916666666666664,53.93518518518518,53.625,88.88888888888889,48C123.84259259259258,42.375,140.74074074074073,-16.583333333333332,177.77777777777777,-17C214.8148148148148,-17.416666666666668,229.6296296296296,48.5,266.66666666666663,46C303.7037037037037,43.5,318.5185185185185,-24,355.55555555555554,-29C392.5925925925926,-34,407.40740740740745,27.416666666666664,444.44444444444446,22C481.48148148148147,16.583333333333336,496.29629629629625,-57.708333333333336,533.3333333333333,-55C570.3703703703703,-52.291666666666664,585.1851851851851,30.208333333333332,622.2222222222222,35C659.2592592592592,39.791666666666664,674.074074074074,-35.958333333333336,711.1111111111111,-32C748.1481481481482,-28.041666666666668,781.4814814814815,36.08333333333333,800,54" transform="matrix(1,0,0,1,0,1518)"></path><path d="M10,10C26.435185185185183,17.916666666666664,53.93518518518518,53.625,88.88888888888889,48C123.84259259259258,42.375,140.74074074074073,-16.583333333333332,177.77777777777777,-17C214.8148148148148,-17.416666666666668,229.6296296296296,48.5,266.66666666666663,46C303.7037037037037,43.5,318.5185185185185,-24,355.55555555555554,-29C392.5925925925926,-34,407.40740740740745,27.416666666666664,444.44444444444446,22C481.48148148148147,16.583333333333336,496.29629629629625,-57.708333333333336,533.3333333333333,-55C570.3703703703703,-52.291666666666664,585.1851851851851,30.208333333333332,622.2222222222222,35C659.2592592592592,39.791666666666664,674.074074074074,-35.958333333333336,711.1111111111111,-32C748.1481481481482,-28.041666666666668,781.4814814814815,36.08333333333333,800,54" transform="matrix(1,0,0,1,0,1495)"></path><path d="M10,10C26.435185185185183,17.916666666666664,53.93518518518518,53.625,88.88888888888889,48C123.84259259259258,42.375,140.74074074074073,-16.583333333333332,177.77777777777777,-17C214.8148148148148,-17.416666666666668,229.6296296296296,48.5,266.66666666666663,46C303.7037037037037,43.5,318.5185185185185,-24,355.55555555555554,-29C392.5925925925926,-34,407.40740740740745,27.416666666666664,444.44444444444446,22C481.48148148148147,16.583333333333336,496.29629629629625,-57.708333333333336,533.3333333333333,-55C570.3703703703703,-52.291666666666664,585.1851851851851,30.208333333333332,622.2222222222222,35C659.2592592592592,39.791666666666664,674.074074074074,-35.958333333333336,711.1111111111111,-32C748.1481481481482,-28.041666666666668,781.4814814814815,36.08333333333333,800,54" transform="matrix(1,0,0,1,0,1472)"></path><path d="M10,10C26.435185185185183,17.916666666666664,53.93518518518518,53.625,88.88888888888889,48C123.84259259259258,42.375,140.74074074074073,-16.583333333333332,177.77777777777777,-17C214.8148148148148,-17.416666666666668,229.6296296296296,48.5,266.66666666666663,46C303.7037037037037,43.5,318.5185185185185,-24,355.55555555555554,-29C392.5925925925926,-34,407.40740740740745,27.416666666666664,444.44444444444446,22C481.48148148148147,16.583333333333336,496.29629629629625,-57.708333333333336,533.3333333333333,-55C570.3703703703703,-52.291666666666664,585.1851851851851,30.208333333333332,622.2222222222222,35C659.2592592592592,39.791666666666664,674.074074074074,-35.958333333333336,711.1111111111111,-32C748.1481481481482,-28.041666666666668,781.4814814814815,36.08333333333333,800,54" transform="matrix(1,0,0,1,0,1449)"></path><path d="M10,10C26.435185185185183,17.916666666666664,53.93518518518518,53.625,88.88888888888889,48C123.84259259259258,42.375,140.74074074074073,-16.583333333333332,177.77777777777777,-17C214.8148148148148,-17.416666666666668,229.6296296296296,48.5,266.66666666666663,46C303.7037037037037,43.5,318.5185185185185,-24,355.55555555555554,-29C392.5925925925926,-34,407.40740740740745,27.416666666666664,444.44444444444446,22C481.48148148148147,16.583333333333336,496.29629629629625,-57.708333333333336,533.3333333333333,-55C570.3703703703703,-52.291666666666664,585.1851851851851,30.208333333333332,622.2222222222222,35C659.2592592592592,39.791666666666664,674.074074074074,-35.958333333333336,711.1111111111111,-32C748.1481481481482,-28.041666666666668,781.4814814814815,36.08333333333333,800,54" transform="matrix(1,0,0,1,0,1426)"></path><path d="M10,10C26.435185185185183,17.916666666666664,53.93518518518518,53.625,88.88888888888889,48C123.84259259259258,42.375,140.74074074074073,-16.583333333333332,177.77777777777777,-17C214.8148148148148,-17.416666666666668,229.6296296296296,48.5,266.66666666666663,46C303.7037037037037,43.5,318.5185185185185,-24,355.55555555555554,-29C392.5925925925926,-34,407.40740740740745,27.416666666666664,444.44444444444446,22C481.48148148148147,16.583333333333336,496.29629629629625,-57.708333333333336,533.3333333333333,-55C570.3703703703703,-52.291666666666664,585.1851851851851,30.208333333333332,622.2222222222222,35C659.2592592592592,39.791666666666664,674.074074074074,-35.958333333333336,711.1111111111111,-32C748.1481481481482,-28.041666666666668,781.4814814814815,36.08333333333333,800,54" transform="matrix(1,0,0,1,0,1403)"></path><path d="M10,10C26.435185185185183,17.916666666666664,53.93518518518518,53.625,88.88888888888889,48C123.84259259259258,42.375,140.74074074074073,-16.583333333333332,177.77777777777777,-17C214.8148148148148,-17.416666666666668,229.6296296296296,48.5,266.66666666666663,46C303.7037037037037,43.5,318.5185185185185,-24,355.55555555555554,-29C392.5925925925926,-34,407.40740740740745,27.416666666666664,444.44444444444446,22C481.48148148148147,16.583333333333336,496.29629629629625,-57.708333333333336,533.3333333333333,-55C570.3703703703703,-52.291666666666664,585.1851851851851,30.208333333333332,622.2222222222222,35C659.2592592592592,39.791666666666664,674.074074074074,-35.958333333333336,711.1111111111111,-32C748.1481481481482,-28.041666666666668,781.4814814814815,36.08333333333333,800,54" transform="matrix(1,0,0,1,0,1380)"></path><path d="M10,10C26.435185185185183,17.916666666666664,53.93518518518518,53.625,88.88888888888889,48C123.84259259259258,42.375,140.74074074074073,-16.583333333333332,177.77777777777777,-17C214.8148148148148,-17.416666666666668,229.6296296296296,48.5,266.66666666666663,46C303.7037037037037,43.5,318.5185185185185,-24,355.55555555555554,-29C392.5925925925926,-34,407.40740740740745,27.416666666666664,444.44444444444446,22C481.48148148148147,16.583333333333336,496.29629629629625,-57.708333333333336,533.3333333333333,-55C570.3703703703703,-52.291666666666664,585.1851851851851,30.208333333333332,622.2222222222222,35C659.2592592592592,39.791666666666664,674.074074074074,-35.958333333333336,711.1111111111111,-32C748.1481481481482,-28.041666666666668,781.4814814814815,36.08333333333333,800,54" transform="matrix(1,0,0,1,0,1357)"></path><path d="M10,10C26.435185185185183,17.916666666666664,53.93518518518518,53.625,88.88888888888889,48C123.84259259259258,42.375,140.74074074074073,-16.583333333333332,177.77777777777777,-17C214.8148148148148,-17.416666666666668,229.6296296296296,48.5,266.66666666666663,46C303.7037037037037,43.5,318.5185185185185,-24,355.55555555555554,-29C392.5925925925926,-34,407.40740740740745,27.416666666666664,444.44444444444446,22C481.48148148148147,16.583333333333336,496.29629629629625,-57.708333333333336,533.3333333333333,-55C570.3703703703703,-52.291666666666664,585.1851851851851,30.208333333333332,622.2222222222222,35C659.2592592592592,39.791666666666664,674.074074074074,-35.958333333333336,711.1111111111111,-32C748.1481481481482,-28.041666666666668,781.4814814814815,36.08333333333333,800,54" transform="matrix(1,0,0,1,0,1334)"></path><path d="M10,10C26.435185185185183,17.916666666666664,53.93518518518518,53.625,88.88888888888889,48C123.84259259259258,42.375,140.74074074074073,-16.583333333333332,177.77777777777777,-17C214.8148148148148,-17.416666666666668,229.6296296296296,48.5,266.66666666666663,46C303.7037037037037,43.5,318.5185185185185,-24,355.55555555555554,-29C392.5925925925926,-34,407.40740740740745,27.416666666666664,444.44444444444446,22C481.48148148148147,16.583333333333336,496.29629629629625,-57.708333333333336,533.3333333333333,-55C570.3703703703703,-52.291666666666664,585.1851851851851,30.208333333333332,622.2222222222222,35C659.2592592592592,39.791666666666664,674.074074074074,-35.958333333333336,711.1111111111111,-32C748.1481481481482,-28.041666666666668,781.4814814814815,36.08333333333333,800,54" transform="matrix(1,0,0,1,0,1311)"></path><path d="M10,10C26.435185185185183,17.916666666666664,53.93518518518518,53.625,88.88888888888889,48C123.84259259259258,42.375,140.74074074074073,-16.583333333333332,177.77777777777777,-17C214.8148148148148,-17.416666666666668,229.6296296296296,48.5,266.66666666666663,46C303.7037037037037,43.5,318.5185185185185,-24,355.55555555555554,-29C392.5925925925926,-34,407.40740740740745,27.416666666666664,444.44444444444446,22C481.48148148148147,16.583333333333336,496.29629629629625,-57.708333333333336,533.3333333333333,-55C570.3703703703703,-52.291666666666664,585.1851851851851,30.208333333333332,622.2222222222222,35C659.2592592592592,39.791666666666664,674.074074074074,-35.958333333333336,711.1111111111111,-32C748.1481481481482,-28.041666666666668,781.4814814814815,36.08333333333333,800,54" transform="matrix(1,0,0,1,0,1288)"></path><path d="M10,10C26.435185185185183,17.916666666666664,53.93518518518518,53.625,88.88888888888889,48C123.84259259259258,42.375,140.74074074074073,-16.583333333333332,177.77777777777777,-17C214.8148148148148,-17.416666666666668,229.6296296296296,48.5,266.66666666666663,46C303.7037037037037,43.5,318.5185185185185,-24,355.55555555555554,-29C392.5925925925926,-34,407.40740740740745,27.416666666666664,444.44444444444446,22C481.48148148148147,16.583333333333336,496.29629629629625,-57.708333333333336,533.3333333333333,-55C570.3703703703703,-52.291666666666664,585.1851851851851,30.208333333333332,622.2222222222222,35C659.2592592592592,39.791666666666664,674.074074074074,-35.958333333333336,711.1111111111111,-32C748.1481481481482,-28.041666666666668,781.4814814814815,36.08333333333333,800,54" transform="matrix(1,0,0,1,0,1265)"></path><path d="M10,10C26.435185185185183,17.916666666666664,53.93518518518518,53.625,88.88888888888889,48C123.84259259259258,42.375,140.74074074074073,-16.583333333333332,177.77777777777777,-17C214.8148148148148,-17.416666666666668,229.6296296296296,48.5,266.66666666666663,46C303.7037037037037,43.5,318.5185185185185,-24,355.55555555555554,-29C392.5925925925926,-34,407.40740740740745,27.416666666666664,444.44444444444446,22C481.48148148148147,16.583333333333336,496.29629629629625,-57.708333333333336,533.3333333333333,-55C570.3703703703703,-52.291666666666664,585.1851851851851,30.208333333333332,622.2222222222222,35C659.2592592592592,39.791666666666664,674.074074074074,-35.958333333333336,711.1111111111111,-32C748.1481481481482,-28.041666666666668,781.4814814814815,36.08333333333333,800,54" transform="matrix(1,0,0,1,0,1242)"></path><path d="M10,10C26.435185185185183,17.916666666666664,53.93518518518518,53.625,88.88888888888889,48C123.84259259259258,42.375,140.74074074074073,-16.583333333333332,177.77777777777777,-17C214.8148148148148,-17.416666666666668,229.6296296296296,48.5,266.66666666666663,46C303.7037037037037,43.5,318.5185185185185,-24,355.55555555555554,-29C392.5925925925926,-34,407.40740740740745,27.416666666666664,444.44444444444446,22C481.48148148148147,16.583333333333336,496.29629629629625,-57.708333333333336,533.3333333333333,-55C570.3703703703703,-52.291666666666664,585.1851851851851,30.208333333333332,622.2222222222222,35C659.2592592592592,39.791666666666664,674.074074074074,-35.958333333333336,711.1111111111111,-32C748.1481481481482,-28.041666666666668,781.4814814814815,36.08333333333333,800,54" transform="matrix(1,0,0,1,0,1219)"></path><path d="M10,10C26.435185185185183,17.916666666666664,53.93518518518518,53.625,88.88888888888889,48C123.84259259259258,42.375,140.74074074074073,-16.583333333333332,177.77777777777777,-17C214.8148148148148,-17.416666666666668,229.6296296296296,48.5,266.66666666666663,46C303.7037037037037,43.5,318.5185185185185,-24,355.55555555555554,-29C392.5925925925926,-34,407.40740740740745,27.416666666666664,444.44444444444446,22C481.48148148148147,16.583333333333336,496.29629629629625,-57.708333333333336,533.3333333333333,-55C570.3703703703703,-52.291666666666664,585.1851851851851,30.208333333333332,622.2222222222222,35C659.2592592592592,39.791666666666664,674.074074074074,-35.958333333333336,711.1111111111111,-32C748.1481481481482,-28.041666666666668,781.4814814814815,36.08333333333333,800,54" transform="matrix(1,0,0,1,0,1196)"></path><path d="M10,10C26.435185185185183,17.916666666666664,53.93518518518518,53.625,88.88888888888889,48C123.84259259259258,42.375,140.74074074074073,-16.583333333333332,177.77777777777777,-17C214.8148148148148,-17.416666666666668,229.6296296296296,48.5,266.66666666666663,46C303.7037037037037,43.5,318.5185185185185,-24,355.55555555555554,-29C392.5925925925926,-34,407.40740740740745,27.416666666666664,444.44444444444446,22C481.48148148148147,16.583333333333336,496.29629629629625,-57.708333333333336,533.3333333333333,-55C570.3703703703703,-52.291666666666664,585.1851851851851,30.208333333333332,622.2222222222222,35C659.2592592592592,39.791666666666664,674.074074074074,-35.958333333333336,711.1111111111111,-32C748.1481481481482,-28.041666666666668,781.4814814814815,36.08333333333333,800,54" transform="matrix(1,0,0,1,0,1173)"></path><path d="M10,10C26.435185185185183,17.916666666666664,53.93518518518518,53.625,88.88888888888889,48C123.84259259259258,42.375,140.74074074074073,-16.583333333333332,177.77777777777777,-17C214.8148148148148,-17.416666666666668,229.6296296296296,48.5,266.66666666666663,46C303.7037037037037,43.5,318.5185185185185,-24,355.55555555555554,-29C392.5925925925926,-34,407.40740740740745,27.416666666666664,444.44444444444446,22C481.48148148148147,16.583333333333336,496.29629629629625,-57.708333333333336,533.3333333333333,-55C570.3703703703703,-52.291666666666664,585.1851851851851,30.208333333333332,622.2222222222222,35C659.2592592592592,39.791666666666664,674.074074074074,-35.958333333333336,711.1111111111111,-32C748.1481481481482,-28.041666666666668,781.4814814814815,36.08333333333333,800,54" transform="matrix(1,0,0,1,0,1150)"></path><path d="M10,10C26.435185185185183,17.916666666666664,53.93518518518518,53.625,88.88888888888889,48C123.84259259259258,42.375,140.74074074074073,-16.583333333333332,177.77777777777777,-17C214.8148148148148,-17.416666666666668,229.6296296296296,48.5,266.66666666666663,46C303.7037037037037,43.5,318.5185185185185,-24,355.55555555555554,-29C392.5925925925926,-34,407.40740740740745,27.416666666666664,444.44444444444446,22C481.48148148148147,16.583333333333336,496.29629629629625,-57.708333333333336,533.3333333333333,-55C570.3703703703703,-52.291666666666664,585.1851851851851,30.208333333333332,622.2222222222222,35C659.2592592592592,39.791666666666664,674.074074074074,-35.958333333333336,711.1111111111111,-32C748.1481481481482,-28.041666666666668,781.4814814814815,36.08333333333333,800,54" transform="matrix(1,0,0,1,0,1127)"></path><path d="M10,10C26.435185185185183,17.916666666666664,53.93518518518518,53.625,88.88888888888889,48C123.84259259259258,42.375,140.74074074074073,-16.583333333333332,177.77777777777777,-17C214.8148148148148,-17.416666666666668,229.6296296296296,48.5,266.66666666666663,46C303.7037037037037,43.5,318.5185185185185,-24,355.55555555555554,-29C392.5925925925926,-34,407.40740740740745,27.416666666666664,444.44444444444446,22C481.48148148148147,16.583333333333336,496.29629629629625,-57.708333333333336,533.3333333333333,-55C570.3703703703703,-52.291666666666664,585.1851851851851,30.208333333333332,622.2222222222222,35C659.2592592592592,39.791666666666664,674.074074074074,-35.958333333333336,711.1111111111111,-32C748.1481481481482,-28.041666666666668,781.4814814814815,36.08333333333333,800,54" transform="matrix(1,0,0,1,0,1104)"></path><path d="M10,10C26.435185185185183,17.916666666666664,53.93518518518518,53.625,88.88888888888889,48C123.84259259259258,42.375,140.74074074074073,-16.583333333333332,177.77777777777777,-17C214.8148148148148,-17.416666666666668,229.6296296296296,48.5,266.66666666666663,46C303.7037037037037,43.5,318.5185185185185,-24,355.55555555555554,-29C392.5925925925926,-34,407.40740740740745,27.416666666666664,444.44444444444446,22C481.48148148148147,16.583333333333336,496.29629629629625,-57.708333333333336,533.3333333333333,-55C570.3703703703703,-52.291666666666664,585.1851851851851,30.208333333333332,622.2222222222222,35C659.2592592592592,39.791666666666664,674.074074074074,-35.958333333333336,711.1111111111111,-32C748.1481481481482,-28.041666666666668,781.4814814814815,36.08333333333333,800,54" transform="matrix(1,0,0,1,0,1081)"></path><path d="M10,10C26.435185185185183,17.916666666666664,53.93518518518518,53.625,88.88888888888889,48C123.84259259259258,42.375,140.74074074074073,-16.583333333333332,177.77777777777777,-17C214.8148148148148,-17.416666666666668,229.6296296296296,48.5,266.66666666666663,46C303.7037037037037,43.5,318.5185185185185,-24,355.55555555555554,-29C392.5925925925926,-34,407.40740740740745,27.416666666666664,444.44444444444446,22C481.48148148148147,16.583333333333336,496.29629629629625,-57.708333333333336,533.3333333333333,-55C570.3703703703703,-52.291666666666664,585.1851851851851,30.208333333333332,622.2222222222222,35C659.2592592592592,39.791666666666664,674.074074074074,-35.958333333333336,711.1111111111111,-32C748.1481481481482,-28.041666666666668,781.4814814814815,36.08333333333333,800,54" transform="matrix(1,0,0,1,0,1058)"></path><path d="M10,10C26.435185185185183,17.916666666666664,53.93518518518518,53.625,88.88888888888889,48C123.84259259259258,42.375,140.74074074074073,-16.583333333333332,177.77777777777777,-17C214.8148148148148,-17.416666666666668,229.6296296296296,48.5,266.66666666666663,46C303.7037037037037,43.5,318.5185185185185,-24,355.55555555555554,-29C392.5925925925926,-34,407.40740740740745,27.416666666666664,444.44444444444446,22C481.48148148148147,16.583333333333336,496.29629629629625,-57.708333333333336,533.3333333333333,-55C570.3703703703703,-52.291666666666664,585.1851851851851,30.208333333333332,622.2222222222222,35C659.2592592592592,39.791666666666664,674.074074074074,-35.958333333333336,711.1111111111111,-32C748.1481481481482,-28.041666666666668,781.4814814814815,36.08333333333333,800,54" transform="matrix(1,0,0,1,0,1035)"></path><path d="M10,10C26.435185185185183,17.916666666666664,53.93518518518518,53.625,88.88888888888889,48C123.84259259259258,42.375,140.74074074074073,-16.583333333333332,177.77777777777777,-17C214.8148148148148,-17.416666666666668,229.6296296296296,48.5,266.66666666666663,46C303.7037037037037,43.5,318.5185185185185,-24,355.55555555555554,-29C392.5925925925926,-34,407.40740740740745,27.416666666666664,444.44444444444446,22C481.48148148148147,16.583333333333336,496.29629629629625,-57.708333333333336,533.3333333333333,-55C570.3703703703703,-52.291666666666664,585.1851851851851,30.208333333333332,622.2222222222222,35C659.2592592592592,39.791666666666664,674.074074074074,-35.958333333333336,711.1111111111111,-32C748.1481481481482,-28.041666666666668,781.4814814814815,36.08333333333333,800,54" transform="matrix(1,0,0,1,0,1012)"></path><path d="M10,10C26.435185185185183,17.916666666666664,53.93518518518518,53.625,88.88888888888889,48C123.84259259259258,42.375,140.74074074074073,-16.583333333333332,177.77777777777777,-17C214.8148148148148,-17.416666666666668,229.6296296296296,48.5,266.66666666666663,46C303.7037037037037,43.5,318.5185185185185,-24,355.55555555555554,-29C392.5925925925926,-34,407.40740740740745,27.416666666666664,444.44444444444446,22C481.48148148148147,16.583333333333336,496.29629629629625,-57.708333333333336,533.3333333333333,-55C570.3703703703703,-52.291666666666664,585.1851851851851,30.208333333333332,622.2222222222222,35C659.2592592592592,39.791666666666664,674.074074074074,-35.958333333333336,711.1111111111111,-32C748.1481481481482,-28.041666666666668,781.4814814814815,36.08333333333333,800,54" transform="matrix(1,0,0,1,0,989)"></path><path d="M10,10C26.435185185185183,17.916666666666664,53.93518518518518,53.625,88.88888888888889,48C123.84259259259258,42.375,140.74074074074073,-16.583333333333332,177.77777777777777,-17C214.8148148148148,-17.416666666666668,229.6296296296296,48.5,266.66666666666663,46C303.7037037037037,43.5,318.5185185185185,-24,355.55555555555554,-29C392.5925925925926,-34,407.40740740740745,27.416666666666664,444.44444444444446,22C481.48148148148147,16.583333333333336,496.29629629629625,-57.708333333333336,533.3333333333333,-55C570.3703703703703,-52.291666666666664,585.1851851851851,30.208333333333332,622.2222222222222,35C659.2592592592592,39.791666666666664,674.074074074074,-35.958333333333336,711.1111111111111,-32C748.1481481481482,-28.041666666666668,781.4814814814815,36.08333333333333,800,54" transform="matrix(1,0,0,1,0,966)"></path><path d="M10,10C26.435185185185183,17.916666666666664,53.93518518518518,53.625,88.88888888888889,48C123.84259259259258,42.375,140.74074074074073,-16.583333333333332,177.77777777777777,-17C214.8148148148148,-17.416666666666668,229.6296296296296,48.5,266.66666666666663,46C303.7037037037037,43.5,318.5185185185185,-24,355.55555555555554,-29C392.5925925925926,-34,407.40740740740745,27.416666666666664,444.44444444444446,22C481.48148148148147,16.583333333333336,496.29629629629625,-57.708333333333336,533.3333333333333,-55C570.3703703703703,-52.291666666666664,585.1851851851851,30.208333333333332,622.2222222222222,35C659.2592592592592,39.791666666666664,674.074074074074,-35.958333333333336,711.1111111111111,-32C748.1481481481482,-28.041666666666668,781.4814814814815,36.08333333333333,800,54" transform="matrix(1,0,0,1,0,943)"></path><path d="M10,10C26.435185185185183,17.916666666666664,53.93518518518518,53.625,88.88888888888889,48C123.84259259259258,42.375,140.74074074074073,-16.583333333333332,177.77777777777777,-17C214.8148148148148,-17.416666666666668,229.6296296296296,48.5,266.66666666666663,46C303.7037037037037,43.5,318.5185185185185,-24,355.55555555555554,-29C392.5925925925926,-34,407.40740740740745,27.416666666666664,444.44444444444446,22C481.48148148148147,16.583333333333336,496.29629629629625,-57.708333333333336,533.3333333333333,-55C570.3703703703703,-52.291666666666664,585.1851851851851,30.208333333333332,622.2222222222222,35C659.2592592592592,39.791666666666664,674.074074074074,-35.958333333333336,711.1111111111111,-32C748.1481481481482,-28.041666666666668,781.4814814814815,36.08333333333333,800,54" transform="matrix(1,0,0,1,0,920)"></path><path d="M10,10C26.435185185185183,17.916666666666664,53.93518518518518,53.625,88.88888888888889,48C123.84259259259258,42.375,140.74074074074073,-16.583333333333332,177.77777777777777,-17C214.8148148148148,-17.416666666666668,229.6296296296296,48.5,266.66666666666663,46C303.7037037037037,43.5,318.5185185185185,-24,355.55555555555554,-29C392.5925925925926,-34,407.40740740740745,27.416666666666664,444.44444444444446,22C481.48148148148147,16.583333333333336,496.29629629629625,-57.708333333333336,533.3333333333333,-55C570.3703703703703,-52.291666666666664,585.1851851851851,30.208333333333332,622.2222222222222,35C659.2592592592592,39.791666666666664,674.074074074074,-35.958333333333336,711.1111111111111,-32C748.1481481481482,-28.041666666666668,781.4814814814815,36.08333333333333,800,54" transform="matrix(1,0,0,1,0,897)"></path><path d="M10,10C26.435185185185183,17.916666666666664,53.93518518518518,53.625,88.88888888888889,48C123.84259259259258,42.375,140.74074074074073,-16.583333333333332,177.77777777777777,-17C214.8148148148148,-17.416666666666668,229.6296296296296,48.5,266.66666666666663,46C303.7037037037037,43.5,318.5185185185185,-24,355.55555555555554,-29C392.5925925925926,-34,407.40740740740745,27.416666666666664,444.44444444444446,22C481.48148148148147,16.583333333333336,496.29629629629625,-57.708333333333336,533.3333333333333,-55C570.3703703703703,-52.291666666666664,585.1851851851851,30.208333333333332,622.2222222222222,35C659.2592592592592,39.791666666666664,674.074074074074,-35.958333333333336,711.1111111111111,-32C748.1481481481482,-28.041666666666668,781.4814814814815,36.08333333333333,800,54" transform="matrix(1,0,0,1,0,874)"></path><path d="M10,10C26.435185185185183,17.916666666666664,53.93518518518518,53.625,88.88888888888889,48C123.84259259259258,42.375,140.74074074074073,-16.583333333333332,177.77777777777777,-17C214.8148148148148,-17.416666666666668,229.6296296296296,48.5,266.66666666666663,46C303.7037037037037,43.5,318.5185185185185,-24,355.55555555555554,-29C392.5925925925926,-34,407.40740740740745,27.416666666666664,444.44444444444446,22C481.48148148148147,16.583333333333336,496.29629629629625,-57.708333333333336,533.3333333333333,-55C570.3703703703703,-52.291666666666664,585.1851851851851,30.208333333333332,622.2222222222222,35C659.2592592592592,39.791666666666664,674.074074074074,-35.958333333333336,711.1111111111111,-32C748.1481481481482,-28.041666666666668,781.4814814814815,36.08333333333333,800,54" transform="matrix(1,0,0,1,0,851)"></path><path d="M10,10C26.435185185185183,17.916666666666664,53.93518518518518,53.625,88.88888888888889,48C123.84259259259258,42.375,140.74074074074073,-16.583333333333332,177.77777777777777,-17C214.8148148148148,-17.416666666666668,229.6296296296296,48.5,266.66666666666663,46C303.7037037037037,43.5,318.5185185185185,-24,355.55555555555554,-29C392.5925925925926,-34,407.40740740740745,27.416666666666664,444.44444444444446,22C481.48148148148147,16.583333333333336,496.29629629629625,-57.708333333333336,533.3333333333333,-55C570.3703703703703,-52.291666666666664,585.1851851851851,30.208333333333332,622.2222222222222,35C659.2592592592592,39.791666666666664,674.074074074074,-35.958333333333336,711.1111111111111,-32C748.1481481481482,-28.041666666666668,781.4814814814815,36.08333333333333,800,54" transform="matrix(1,0,0,1,0,828)"></path><path d="M10,10C26.435185185185183,17.916666666666664,53.93518518518518,53.625,88.88888888888889,48C123.84259259259258,42.375,140.74074074074073,-16.583333333333332,177.77777777777777,-17C214.8148148148148,-17.416666666666668,229.6296296296296,48.5,266.66666666666663,46C303.7037037037037,43.5,318.5185185185185,-24,355.55555555555554,-29C392.5925925925926,-34,407.40740740740745,27.416666666666664,444.44444444444446,22C481.48148148148147,16.583333333333336,496.29629629629625,-57.708333333333336,533.3333333333333,-55C570.3703703703703,-52.291666666666664,585.1851851851851,30.208333333333332,622.2222222222222,35C659.2592592592592,39.791666666666664,674.074074074074,-35.958333333333336,711.1111111111111,-32C748.1481481481482,-28.041666666666668,781.4814814814815,36.08333333333333,800,54" transform="matrix(1,0,0,1,0,805)"></path><path d="M10,10C26.435185185185183,17.916666666666664,53.93518518518518,53.625,88.88888888888889,48C123.84259259259258,42.375,140.74074074074073,-16.583333333333332,177.77777777777777,-17C214.8148148148148,-17.416666666666668,229.6296296296296,48.5,266.66666666666663,46C303.7037037037037,43.5,318.5185185185185,-24,355.55555555555554,-29C392.5925925925926,-34,407.40740740740745,27.416666666666664,444.44444444444446,22C481.48148148148147,16.583333333333336,496.29629629629625,-57.708333333333336,533.3333333333333,-55C570.3703703703703,-52.291666666666664,585.1851851851851,30.208333333333332,622.2222222222222,35C659.2592592592592,39.791666666666664,674.074074074074,-35.958333333333336,711.1111111111111,-32C748.1481481481482,-28.041666666666668,781.4814814814815,36.08333333333333,800,54" transform="matrix(1,0,0,1,0,782)"></path><path d="M10,10C26.435185185185183,17.916666666666664,53.93518518518518,53.625,88.88888888888889,48C123.84259259259258,42.375,140.74074074074073,-16.583333333333332,177.77777777777777,-17C214.8148148148148,-17.416666666666668,229.6296296296296,48.5,266.66666666666663,46C303.7037037037037,43.5,318.5185185185185,-24,355.55555555555554,-29C392.5925925925926,-34,407.40740740740745,27.416666666666664,444.44444444444446,22C481.48148148148147,16.583333333333336,496.29629629629625,-57.708333333333336,533.3333333333333,-55C570.3703703703703,-52.291666666666664,585.1851851851851,30.208333333333332,622.2222222222222,35C659.2592592592592,39.791666666666664,674.074074074074,-35.958333333333336,711.1111111111111,-32C748.1481481481482,-28.041666666666668,781.4814814814815,36.08333333333333,800,54" transform="matrix(1,0,0,1,0,759)"></path><path d="M10,10C26.435185185185183,17.916666666666664,53.93518518518518,53.625,88.88888888888889,48C123.84259259259258,42.375,140.74074074074073,-16.583333333333332,177.77777777777777,-17C214.8148148148148,-17.416666666666668,229.6296296296296,48.5,266.66666666666663,46C303.7037037037037,43.5,318.5185185185185,-24,355.55555555555554,-29C392.5925925925926,-34,407.40740740740745,27.416666666666664,444.44444444444446,22C481.48148148148147,16.583333333333336,496.29629629629625,-57.708333333333336,533.3333333333333,-55C570.3703703703703,-52.291666666666664,585.1851851851851,30.208333333333332,622.2222222222222,35C659.2592592592592,39.791666666666664,674.074074074074,-35.958333333333336,711.1111111111111,-32C748.1481481481482,-28.041666666666668,781.4814814814815,36.08333333333333,800,54" transform="matrix(1,0,0,1,0,736)"></path><path d="M10,10C26.435185185185183,17.916666666666664,53.93518518518518,53.625,88.88888888888889,48C123.84259259259258,42.375,140.74074074074073,-16.583333333333332,177.77777777777777,-17C214.8148148148148,-17.416666666666668,229.6296296296296,48.5,266.66666666666663,46C303.7037037037037,43.5,318.5185185185185,-24,355.55555555555554,-29C392.5925925925926,-34,407.40740740740745,27.416666666666664,444.44444444444446,22C481.48148148148147,16.583333333333336,496.29629629629625,-57.708333333333336,533.3333333333333,-55C570.3703703703703,-52.291666666666664,585.1851851851851,30.208333333333332,622.2222222222222,35C659.2592592592592,39.791666666666664,674.074074074074,-35.958333333333336,711.1111111111111,-32C748.1481481481482,-28.041666666666668,781.4814814814815,36.08333333333333,800,54" transform="matrix(1,0,0,1,0,713)"></path><path d="M10,10C26.435185185185183,17.916666666666664,53.93518518518518,53.625,88.88888888888889,48C123.84259259259258,42.375,140.74074074074073,-16.583333333333332,177.77777777777777,-17C214.8148148148148,-17.416666666666668,229.6296296296296,48.5,266.66666666666663,46C303.7037037037037,43.5,318.5185185185185,-24,355.55555555555554,-29C392.5925925925926,-34,407.40740740740745,27.416666666666664,444.44444444444446,22C481.48148148148147,16.583333333333336,496.29629629629625,-57.708333333333336,533.3333333333333,-55C570.3703703703703,-52.291666666666664,585.1851851851851,30.208333333333332,622.2222222222222,35C659.2592592592592,39.791666666666664,674.074074074074,-35.958333333333336,711.1111111111111,-32C748.1481481481482,-28.041666666666668,781.4814814814815,36.08333333333333,800,54" transform="matrix(1,0,0,1,0,690)"></path><path d="M10,10C26.435185185185183,17.916666666666664,53.93518518518518,53.625,88.88888888888889,48C123.84259259259258,42.375,140.74074074074073,-16.583333333333332,177.77777777777777,-17C214.8148148148148,-17.416666666666668,229.6296296296296,48.5,266.66666666666663,46C303.7037037037037,43.5,318.5185185185185,-24,355.55555555555554,-29C392.5925925925926,-34,407.40740740740745,27.416666666666664,444.44444444444446,22C481.48148148148147,16.583333333333336,496.29629629629625,-57.708333333333336,533.3333333333333,-55C570.3703703703703,-52.291666666666664,585.1851851851851,30.208333333333332,622.2222222222222,35C659.2592592592592,39.791666666666664,674.074074074074,-35.958333333333336,711.1111111111111,-32C748.1481481481482,-28.041666666666668,781.4814814814815,36.08333333333333,800,54" transform="matrix(1,0,0,1,0,667)"></path><path d="M10,10C26.435185185185183,17.916666666666664,53.93518518518518,53.625,88.88888888888889,48C123.84259259259258,42.375,140.74074074074073,-16.583333333333332,177.77777777777777,-17C214.8148148148148,-17.416666666666668,229.6296296296296,48.5,266.66666666666663,46C303.7037037037037,43.5,318.5185185185185,-24,355.55555555555554,-29C392.5925925925926,-34,407.40740740740745,27.416666666666664,444.44444444444446,22C481.48148148148147,16.583333333333336,496.29629629629625,-57.708333333333336,533.3333333333333,-55C570.3703703703703,-52.291666666666664,585.1851851851851,30.208333333333332,622.2222222222222,35C659.2592592592592,39.791666666666664,674.074074074074,-35.958333333333336,711.1111111111111,-32C748.1481481481482,-28.041666666666668,781.4814814814815,36.08333333333333,800,54" transform="matrix(1,0,0,1,0,644)"></path><path d="M10,10C26.435185185185183,17.916666666666664,53.93518518518518,53.625,88.88888888888889,48C123.84259259259258,42.375,140.74074074074073,-16.583333333333332,177.77777777777777,-17C214.8148148148148,-17.416666666666668,229.6296296296296,48.5,266.66666666666663,46C303.7037037037037,43.5,318.5185185185185,-24,355.55555555555554,-29C392.5925925925926,-34,407.40740740740745,27.416666666666664,444.44444444444446,22C481.48148148148147,16.583333333333336,496.29629629629625,-57.708333333333336,533.3333333333333,-55C570.3703703703703,-52.291666666666664,585.1851851851851,30.208333333333332,622.2222222222222,35C659.2592592592592,39.791666666666664,674.074074074074,-35.958333333333336,711.1111111111111,-32C748.1481481481482,-28.041666666666668,781.4814814814815,36.08333333333333,800,54" transform="matrix(1,0,0,1,0,621)"></path><path d="M10,10C26.435185185185183,17.916666666666664,53.93518518518518,53.625,88.88888888888889,48C123.84259259259258,42.375,140.74074074074073,-16.583333333333332,177.77777777777777,-17C214.8148148148148,-17.416666666666668,229.6296296296296,48.5,266.66666666666663,46C303.7037037037037,43.5,318.5185185185185,-24,355.55555555555554,-29C392.5925925925926,-34,407.40740740740745,27.416666666666664,444.44444444444446,22C481.48148148148147,16.583333333333336,496.29629629629625,-57.708333333333336,533.3333333333333,-55C570.3703703703703,-52.291666666666664,585.1851851851851,30.208333333333332,622.2222222222222,35C659.2592592592592,39.791666666666664,674.074074074074,-35.958333333333336,711.1111111111111,-32C748.1481481481482,-28.041666666666668,781.4814814814815,36.08333333333333,800,54" transform="matrix(1,0,0,1,0,598)"></path><path d="M10,10C26.435185185185183,17.916666666666664,53.93518518518518,53.625,88.88888888888889,48C123.84259259259258,42.375,140.74074074074073,-16.583333333333332,177.77777777777777,-17C214.8148148148148,-17.416666666666668,229.6296296296296,48.5,266.66666666666663,46C303.7037037037037,43.5,318.5185185185185,-24,355.55555555555554,-29C392.5925925925926,-34,407.40740740740745,27.416666666666664,444.44444444444446,22C481.48148148148147,16.583333333333336,496.29629629629625,-57.708333333333336,533.3333333333333,-55C570.3703703703703,-52.291666666666664,585.1851851851851,30.208333333333332,622.2222222222222,35C659.2592592592592,39.791666666666664,674.074074074074,-35.958333333333336,711.1111111111111,-32C748.1481481481482,-28.041666666666668,781.4814814814815,36.08333333333333,800,54" transform="matrix(1,0,0,1,0,575)"></path><path d="M10,10C26.435185185185183,17.916666666666664,53.93518518518518,53.625,88.88888888888889,48C123.84259259259258,42.375,140.74074074074073,-16.583333333333332,177.77777777777777,-17C214.8148148148148,-17.416666666666668,229.6296296296296,48.5,266.66666666666663,46C303.7037037037037,43.5,318.5185185185185,-24,355.55555555555554,-29C392.5925925925926,-34,407.40740740740745,27.416666666666664,444.44444444444446,22C481.48148148148147,16.583333333333336,496.29629629629625,-57.708333333333336,533.3333333333333,-55C570.3703703703703,-52.291666666666664,585.1851851851851,30.208333333333332,622.2222222222222,35C659.2592592592592,39.791666666666664,674.074074074074,-35.958333333333336,711.1111111111111,-32C748.1481481481482,-28.041666666666668,781.4814814814815,36.08333333333333,800,54" transform="matrix(1,0,0,1,0,552)"></path><path d="M10,10C26.435185185185183,17.916666666666664,53.93518518518518,53.625,88.88888888888889,48C123.84259259259258,42.375,140.74074074074073,-16.583333333333332,177.77777777777777,-17C214.8148148148148,-17.416666666666668,229.6296296296296,48.5,266.66666666666663,46C303.7037037037037,43.5,318.5185185185185,-24,355.55555555555554,-29C392.5925925925926,-34,407.40740740740745,27.416666666666664,444.44444444444446,22C481.48148148148147,16.583333333333336,496.29629629629625,-57.708333333333336,533.3333333333333,-55C570.3703703703703,-52.291666666666664,585.1851851851851,30.208333333333332,622.2222222222222,35C659.2592592592592,39.791666666666664,674.074074074074,-35.958333333333336,711.1111111111111,-32C748.1481481481482,-28.041666666666668,781.4814814814815,36.08333333333333,800,54" transform="matrix(1,0,0,1,0,529)"></path><path d="M10,10C26.435185185185183,17.916666666666664,53.93518518518518,53.625,88.88888888888889,48C123.84259259259258,42.375,140.74074074074073,-16.583333333333332,177.77777777777777,-17C214.8148148148148,-17.416666666666668,229.6296296296296,48.5,266.66666666666663,46C303.7037037037037,43.5,318.5185185185185,-24,355.55555555555554,-29C392.5925925925926,-34,407.40740740740745,27.416666666666664,444.44444444444446,22C481.48148148148147,16.583333333333336,496.29629629629625,-57.708333333333336,533.3333333333333,-55C570.3703703703703,-52.291666666666664,585.1851851851851,30.208333333333332,622.2222222222222,35C659.2592592592592,39.791666666666664,674.074074074074,-35.958333333333336,711.1111111111111,-32C748.1481481481482,-28.041666666666668,781.4814814814815,36.08333333333333,800,54" transform="matrix(1,0,0,1,0,506)"></path><path d="M10,10C26.435185185185183,17.916666666666664,53.93518518518518,53.625,88.88888888888889,48C123.84259259259258,42.375,140.74074074074073,-16.583333333333332,177.77777777777777,-17C214.8148148148148,-17.416666666666668,229.6296296296296,48.5,266.66666666666663,46C303.7037037037037,43.5,318.5185185185185,-24,355.55555555555554,-29C392.5925925925926,-34,407.40740740740745,27.416666666666664,444.44444444444446,22C481.48148148148147,16.583333333333336,496.29629629629625,-57.708333333333336,533.3333333333333,-55C570.3703703703703,-52.291666666666664,585.1851851851851,30.208333333333332,622.2222222222222,35C659.2592592592592,39.791666666666664,674.074074074074,-35.958333333333336,711.1111111111111,-32C748.1481481481482,-28.041666666666668,781.4814814814815,36.08333333333333,800,54" transform="matrix(1,0,0,1,0,483)"></path><path d="M10,10C26.435185185185183,17.916666666666664,53.93518518518518,53.625,88.88888888888889,48C123.84259259259258,42.375,140.74074074074073,-16.583333333333332,177.77777777777777,-17C214.8148148148148,-17.416666666666668,229.6296296296296,48.5,266.66666666666663,46C303.7037037037037,43.5,318.5185185185185,-24,355.55555555555554,-29C392.5925925925926,-34,407.40740740740745,27.416666666666664,444.44444444444446,22C481.48148148148147,16.583333333333336,496.29629629629625,-57.708333333333336,533.3333333333333,-55C570.3703703703703,-52.291666666666664,585.1851851851851,30.208333333333332,622.2222222222222,35C659.2592592592592,39.791666666666664,674.074074074074,-35.958333333333336,711.1111111111111,-32C748.1481481481482,-28.041666666666668,781.4814814814815,36.08333333333333,800,54" transform="matrix(1,0,0,1,0,460)"></path><path d="M10,10C26.435185185185183,17.916666666666664,53.93518518518518,53.625,88.88888888888889,48C123.84259259259258,42.375,140.74074074074073,-16.583333333333332,177.77777777777777,-17C214.8148148148148,-17.416666666666668,229.6296296296296,48.5,266.66666666666663,46C303.7037037037037,43.5,318.5185185185185,-24,355.55555555555554,-29C392.5925925925926,-34,407.40740740740745,27.416666666666664,444.44444444444446,22C481.48148148148147,16.583333333333336,496.29629629629625,-57.708333333333336,533.3333333333333,-55C570.3703703703703,-52.291666666666664,585.1851851851851,30.208333333333332,622.2222222222222,35C659.2592592592592,39.791666666666664,674.074074074074,-35.958333333333336,711.1111111111111,-32C748.1481481481482,-28.041666666666668,781.4814814814815,36.08333333333333,800,54" transform="matrix(1,0,0,1,0,437)"></path><path d="M10,10C26.435185185185183,17.916666666666664,53.93518518518518,53.625,88.88888888888889,48C123.84259259259258,42.375,140.74074074074073,-16.583333333333332,177.77777777777777,-17C214.8148148148148,-17.416666666666668,229.6296296296296,48.5,266.66666666666663,46C303.7037037037037,43.5,318.5185185185185,-24,355.55555555555554,-29C392.5925925925926,-34,407.40740740740745,27.416666666666664,444.44444444444446,22C481.48148148148147,16.583333333333336,496.29629629629625,-57.708333333333336,533.3333333333333,-55C570.3703703703703,-52.291666666666664,585.1851851851851,30.208333333333332,622.2222222222222,35C659.2592592592592,39.791666666666664,674.074074074074,-35.958333333333336,711.1111111111111,-32C748.1481481481482,-28.041666666666668,781.4814814814815,36.08333333333333,800,54" transform="matrix(1,0,0,1,0,414)"></path><path d="M10,10C26.435185185185183,17.916666666666664,53.93518518518518,53.625,88.88888888888889,48C123.84259259259258,42.375,140.74074074074073,-16.583333333333332,177.77777777777777,-17C214.8148148148148,-17.416666666666668,229.6296296296296,48.5,266.66666666666663,46C303.7037037037037,43.5,318.5185185185185,-24,355.55555555555554,-29C392.5925925925926,-34,407.40740740740745,27.416666666666664,444.44444444444446,22C481.48148148148147,16.583333333333336,496.29629629629625,-57.708333333333336,533.3333333333333,-55C570.3703703703703,-52.291666666666664,585.1851851851851,30.208333333333332,622.2222222222222,35C659.2592592592592,39.791666666666664,674.074074074074,-35.958333333333336,711.1111111111111,-32C748.1481481481482,-28.041666666666668,781.4814814814815,36.08333333333333,800,54" transform="matrix(1,0,0,1,0,391)"></path><path d="M10,10C26.435185185185183,17.916666666666664,53.93518518518518,53.625,88.88888888888889,48C123.84259259259258,42.375,140.74074074074073,-16.583333333333332,177.77777777777777,-17C214.8148148148148,-17.416666666666668,229.6296296296296,48.5,266.66666666666663,46C303.7037037037037,43.5,318.5185185185185,-24,355.55555555555554,-29C392.5925925925926,-34,407.40740740740745,27.416666666666664,444.44444444444446,22C481.48148148148147,16.583333333333336,496.29629629629625,-57.708333333333336,533.3333333333333,-55C570.3703703703703,-52.291666666666664,585.1851851851851,30.208333333333332,622.2222222222222,35C659.2592592592592,39.791666666666664,674.074074074074,-35.958333333333336,711.1111111111111,-32C748.1481481481482,-28.041666666666668,781.4814814814815,36.08333333333333,800,54" transform="matrix(1,0,0,1,0,368)"></path><path d="M10,10C26.435185185185183,17.916666666666664,53.93518518518518,53.625,88.88888888888889,48C123.84259259259258,42.375,140.74074074074073,-16.583333333333332,177.77777777777777,-17C214.8148148148148,-17.416666666666668,229.6296296296296,48.5,266.66666666666663,46C303.7037037037037,43.5,318.5185185185185,-24,355.55555555555554,-29C392.5925925925926,-34,407.40740740740745,27.416666666666664,444.44444444444446,22C481.48148148148147,16.583333333333336,496.29629629629625,-57.708333333333336,533.3333333333333,-55C570.3703703703703,-52.291666666666664,585.1851851851851,30.208333333333332,622.2222222222222,35C659.2592592592592,39.791666666666664,674.074074074074,-35.958333333333336,711.1111111111111,-32C748.1481481481482,-28.041666666666668,781.4814814814815,36.08333333333333,800,54" transform="matrix(1,0,0,1,0,345)"></path><path d="M10,10C26.435185185185183,17.916666666666664,53.93518518518518,53.625,88.88888888888889,48C123.84259259259258,42.375,140.74074074074073,-16.583333333333332,177.77777777777777,-17C214.8148148148148,-17.416666666666668,229.6296296296296,48.5,266.66666666666663,46C303.7037037037037,43.5,318.5185185185185,-24,355.55555555555554,-29C392.5925925925926,-34,407.40740740740745,27.416666666666664,444.44444444444446,22C481.48148148148147,16.583333333333336,496.29629629629625,-57.708333333333336,533.3333333333333,-55C570.3703703703703,-52.291666666666664,585.1851851851851,30.208333333333332,622.2222222222222,35C659.2592592592592,39.791666666666664,674.074074074074,-35.958333333333336,711.1111111111111,-32C748.1481481481482,-28.041666666666668,781.4814814814815,36.08333333333333,800,54" transform="matrix(1,0,0,1,0,322)"></path><path d="M10,10C26.435185185185183,17.916666666666664,53.93518518518518,53.625,88.88888888888889,48C123.84259259259258,42.375,140.74074074074073,-16.583333333333332,177.77777777777777,-17C214.8148148148148,-17.416666666666668,229.6296296296296,48.5,266.66666666666663,46C303.7037037037037,43.5,318.5185185185185,-24,355.55555555555554,-29C392.5925925925926,-34,407.40740740740745,27.416666666666664,444.44444444444446,22C481.48148148148147,16.583333333333336,496.29629629629625,-57.708333333333336,533.3333333333333,-55C570.3703703703703,-52.291666666666664,585.1851851851851,30.208333333333332,622.2222222222222,35C659.2592592592592,39.791666666666664,674.074074074074,-35.958333333333336,711.1111111111111,-32C748.1481481481482,-28.041666666666668,781.4814814814815,36.08333333333333,800,54" transform="matrix(1,0,0,1,0,299)"></path><path d="M10,10C26.435185185185183,17.916666666666664,53.93518518518518,53.625,88.88888888888889,48C123.84259259259258,42.375,140.74074074074073,-16.583333333333332,177.77777777777777,-17C214.8148148148148,-17.416666666666668,229.6296296296296,48.5,266.66666666666663,46C303.7037037037037,43.5,318.5185185185185,-24,355.55555555555554,-29C392.5925925925926,-34,407.40740740740745,27.416666666666664,444.44444444444446,22C481.48148148148147,16.583333333333336,496.29629629629625,-57.708333333333336,533.3333333333333,-55C570.3703703703703,-52.291666666666664,585.1851851851851,30.208333333333332,622.2222222222222,35C659.2592592592592,39.791666666666664,674.074074074074,-35.958333333333336,711.1111111111111,-32C748.1481481481482,-28.041666666666668,781.4814814814815,36.08333333333333,800,54" transform="matrix(1,0,0,1,0,276)"></path><path d="M10,10C26.435185185185183,17.916666666666664,53.93518518518518,53.625,88.88888888888889,48C123.84259259259258,42.375,140.74074074074073,-16.583333333333332,177.77777777777777,-17C214.8148148148148,-17.416666666666668,229.6296296296296,48.5,266.66666666666663,46C303.7037037037037,43.5,318.5185185185185,-24,355.55555555555554,-29C392.5925925925926,-34,407.40740740740745,27.416666666666664,444.44444444444446,22C481.48148148148147,16.583333333333336,496.29629629629625,-57.708333333333336,533.3333333333333,-55C570.3703703703703,-52.291666666666664,585.1851851851851,30.208333333333332,622.2222222222222,35C659.2592592592592,39.791666666666664,674.074074074074,-35.958333333333336,711.1111111111111,-32C748.1481481481482,-28.041666666666668,781.4814814814815,36.08333333333333,800,54" transform="matrix(1,0,0,1,0,253)"></path><path d="M10,10C26.435185185185183,17.916666666666664,53.93518518518518,53.625,88.88888888888889,48C123.84259259259258,42.375,140.74074074074073,-16.583333333333332,177.77777777777777,-17C214.8148148148148,-17.416666666666668,229.6296296296296,48.5,266.66666666666663,46C303.7037037037037,43.5,318.5185185185185,-24,355.55555555555554,-29C392.5925925925926,-34,407.40740740740745,27.416666666666664,444.44444444444446,22C481.48148148148147,16.583333333333336,496.29629629629625,-57.708333333333336,533.3333333333333,-55C570.3703703703703,-52.291666666666664,585.1851851851851,30.208333333333332,622.2222222222222,35C659.2592592592592,39.791666666666664,674.074074074074,-35.958333333333336,711.1111111111111,-32C748.1481481481482,-28.041666666666668,781.4814814814815,36.08333333333333,800,54" transform="matrix(1,0,0,1,0,230)"></path><path d="M10,10C26.435185185185183,17.916666666666664,53.93518518518518,53.625,88.88888888888889,48C123.84259259259258,42.375,140.74074074074073,-16.583333333333332,177.77777777777777,-17C214.8148148148148,-17.416666666666668,229.6296296296296,48.5,266.66666666666663,46C303.7037037037037,43.5,318.5185185185185,-24,355.55555555555554,-29C392.5925925925926,-34,407.40740740740745,27.416666666666664,444.44444444444446,22C481.48148148148147,16.583333333333336,496.29629629629625,-57.708333333333336,533.3333333333333,-55C570.3703703703703,-52.291666666666664,585.1851851851851,30.208333333333332,622.2222222222222,35C659.2592592592592,39.791666666666664,674.074074074074,-35.958333333333336,711.1111111111111,-32C748.1481481481482,-28.041666666666668,781.4814814814815,36.08333333333333,800,54" transform="matrix(1,0,0,1,0,207)"></path><path d="M10,10C26.435185185185183,17.916666666666664,53.93518518518518,53.625,88.88888888888889,48C123.84259259259258,42.375,140.74074074074073,-16.583333333333332,177.77777777777777,-17C214.8148148148148,-17.416666666666668,229.6296296296296,48.5,266.66666666666663,46C303.7037037037037,43.5,318.5185185185185,-24,355.55555555555554,-29C392.5925925925926,-34,407.40740740740745,27.416666666666664,444.44444444444446,22C481.48148148148147,16.583333333333336,496.29629629629625,-57.708333333333336,533.3333333333333,-55C570.3703703703703,-52.291666666666664,585.1851851851851,30.208333333333332,622.2222222222222,35C659.2592592592592,39.791666666666664,674.074074074074,-35.958333333333336,711.1111111111111,-32C748.1481481481482,-28.041666666666668,781.4814814814815,36.08333333333333,800,54" transform="matrix(1,0,0,1,0,184)"></path><path d="M10,10C26.435185185185183,17.916666666666664,53.93518518518518,53.625,88.88888888888889,48C123.84259259259258,42.375,140.74074074074073,-16.583333333333332,177.77777777777777,-17C214.8148148148148,-17.416666666666668,229.6296296296296,48.5,266.66666666666663,46C303.7037037037037,43.5,318.5185185185185,-24,355.55555555555554,-29C392.5925925925926,-34,407.40740740740745,27.416666666666664,444.44444444444446,22C481.48148148148147,16.583333333333336,496.29629629629625,-57.708333333333336,533.3333333333333,-55C570.3703703703703,-52.291666666666664,585.1851851851851,30.208333333333332,622.2222222222222,35C659.2592592592592,39.791666666666664,674.074074074074,-35.958333333333336,711.1111111111111,-32C748.1481481481482,-28.041666666666668,781.4814814814815,36.08333333333333,800,54" transform="matrix(1,0,0,1,0,161)"></path><path d="M10,10C26.435185185185183,17.916666666666664,53.93518518518518,53.625,88.88888888888889,48C123.84259259259258,42.375,140.74074074074073,-16.583333333333332,177.77777777777777,-17C214.8148148148148,-17.416666666666668,229.6296296296296,48.5,266.66666666666663,46C303.7037037037037,43.5,318.5185185185185,-24,355.55555555555554,-29C392.5925925925926,-34,407.40740740740745,27.416666666666664,444.44444444444446,22C481.48148148148147,16.583333333333336,496.29629629629625,-57.708333333333336,533.3333333333333,-55C570.3703703703703,-52.291666666666664,585.1851851851851,30.208333333333332,622.2222222222222,35C659.2592592592592,39.791666666666664,674.074074074074,-35.958333333333336,711.1111111111111,-32C748.1481481481482,-28.041666666666668,781.4814814814815,36.08333333333333,800,54" transform="matrix(1,0,0,1,0,138)"></path><path d="M10,10C26.435185185185183,17.916666666666664,53.93518518518518,53.625,88.88888888888889,48C123.84259259259258,42.375,140.74074074074073,-16.583333333333332,177.77777777777777,-17C214.8148148148148,-17.416666666666668,229.6296296296296,48.5,266.66666666666663,46C303.7037037037037,43.5,318.5185185185185,-24,355.55555555555554,-29C392.5925925925926,-34,407.40740740740745,27.416666666666664,444.44444444444446,22C481.48148148148147,16.583333333333336,496.29629629629625,-57.708333333333336,533.3333333333333,-55C570.3703703703703,-52.291666666666664,585.1851851851851,30.208333333333332,622.2222222222222,35C659.2592592592592,39.791666666666664,674.074074074074,-35.958333333333336,711.1111111111111,-32C748.1481481481482,-28.041666666666668,781.4814814814815,36.08333333333333,800,54" transform="matrix(1,0,0,1,0,115)"></path><path d="M10,10C26.435185185185183,17.916666666666664,53.93518518518518,53.625,88.88888888888889,48C123.84259259259258,42.375,140.74074074074073,-16.583333333333332,177.77777777777777,-17C214.8148148148148,-17.416666666666668,229.6296296296296,48.5,266.66666666666663,46C303.7037037037037,43.5,318.5185185185185,-24,355.55555555555554,-29C392.5925925925926,-34,407.40740740740745,27.416666666666664,444.44444444444446,22C481.48148148148147,16.583333333333336,496.29629629629625,-57.708333333333336,533.3333333333333,-55C570.3703703703703,-52.291666666666664,585.1851851851851,30.208333333333332,622.2222222222222,35C659.2592592592592,39.791666666666664,674.074074074074,-35.958333333333336,711.1111111111111,-32C748.1481481481482,-28.041666666666668,781.4814814814815,36.08333333333333,800,54" transform="matrix(1,0,0,1,0,92)"></path><path d="M10,10C26.435185185185183,17.916666666666664,53.93518518518518,53.625,88.88888888888889,48C123.84259259259258,42.375,140.74074074074073,-16.583333333333332,177.77777777777777,-17C214.8148148148148,-17.416666666666668,229.6296296296296,48.5,266.66666666666663,46C303.7037037037037,43.5,318.5185185185185,-24,355.55555555555554,-29C392.5925925925926,-34,407.40740740740745,27.416666666666664,444.44444444444446,22C481.48148148148147,16.583333333333336,496.29629629629625,-57.708333333333336,533.3333333333333,-55C570.3703703703703,-52.291666666666664,585.1851851851851,30.208333333333332,622.2222222222222,35C659.2592592592592,39.791666666666664,674.074074074074,-35.958333333333336,711.1111111111111,-32C748.1481481481482,-28.041666666666668,781.4814814814815,36.08333333333333,800,54" transform="matrix(1,0,0,1,0,69)"></path><path d="M10,10C26.435185185185183,17.916666666666664,53.93518518518518,53.625,88.88888888888889,48C123.84259259259258,42.375,140.74074074074073,-16.583333333333332,177.77777777777777,-17C214.8148148148148,-17.416666666666668,229.6296296296296,48.5,266.66666666666663,46C303.7037037037037,43.5,318.5185185185185,-24,355.55555555555554,-29C392.5925925925926,-34,407.40740740740745,27.416666666666664,444.44444444444446,22C481.48148148148147,16.583333333333336,496.29629629629625,-57.708333333333336,533.3333333333333,-55C570.3703703703703,-52.291666666666664,585.1851851851851,30.208333333333332,622.2222222222222,35C659.2592592592592,39.791666666666664,674.074074074074,-35.958333333333336,711.1111111111111,-32C748.1481481481482,-28.041666666666668,781.4814814814815,36.08333333333333,800,54" transform="matrix(1,0,0,1,0,46)"></path><path d="M10,10C26.435185185185183,17.916666666666664,53.93518518518518,53.625,88.88888888888889,48C123.84259259259258,42.375,140.74074074074073,-16.583333333333332,177.77777777777777,-17C214.8148148148148,-17.416666666666668,229.6296296296296,48.5,266.66666666666663,46C303.7037037037037,43.5,318.5185185185185,-24,355.55555555555554,-29C392.5925925925926,-34,407.40740740740745,27.416666666666664,444.44444444444446,22C481.48148148148147,16.583333333333336,496.29629629629625,-57.708333333333336,533.3333333333333,-55C570.3703703703703,-52.291666666666664,585.1851851851851,30.208333333333332,622.2222222222222,35C659.2592592592592,39.791666666666664,674.074074074074,-35.958333333333336,711.1111111111111,-32C748.1481481481482,-28.041666666666668,781.4814814814815,36.08333333333333,800,54" transform="matrix(1,0,0,1,0,23)"></path></g></svg>